<svg width="14.639648" height="10.967285" viewBox="0 0 14.6396 10.9673" fill="none" xmlns="http://www.w3.org/2000/svg" xmlns:xlink="http://www.w3.org/1999/xlink">
	<desc>
			Created with Pixso.
	</desc>
	<defs/>
	<path d="M10.99 0.5C11.56 0.5 12.04 0.97 12.04 1.54L12.04 7.31C12.04 7.89 11.56 8.36 10.99 8.36L1.54 8.36C0.97 8.36 0.5 7.89 0.5 7.31L0.5 1.54C0.5 0.97 0.97 0.5 1.54 0.5L10.99 0.5Z" stroke="#FFFFFF" stroke-opacity="1.000000" stroke-width="1.000000" stroke-linejoin="round"/>
	<path d="M12.04 3.12L13.09 3.12C13.66 3.12 14.13 3.59 14.13 4.17L14.13 9.41C14.13 9.99 13.66 10.46 13.09 10.46L3.64 10.46C3.07 10.46 2.59 9.99 2.59 9.41L2.59 8.36" stroke="#FFFFFF" stroke-opacity="1.000000" stroke-width="1.000000" stroke-linejoin="round" stroke-linecap="round"/>
	<path d="M0.5 2.59L12.04 2.59" stroke="#FFFFFF" stroke-opacity="1.000000" stroke-width="1.000000" stroke-linejoin="round" stroke-linecap="round"/>
	<path d="M2.59 6.27L4.17 6.27" stroke="#FFFFFF" stroke-opacity="1.000000" stroke-width="1.000000" stroke-linejoin="round" stroke-linecap="round"/>
	<path d="M8.36 6.27L8.36 6.79" stroke="#FFFFFF" stroke-opacity="1.000000" stroke-width="1.000000" stroke-linejoin="round" stroke-linecap="round"/>
	<path d="M9.94 6.27L9.94 6.79" stroke="#FFFFFF" stroke-opacity="1.000000" stroke-width="1.000000" stroke-linejoin="round" stroke-linecap="round"/>
</svg>
