<svg width="13.307617" height="20.999512" viewBox="0 0 13.3076 20.9995" fill="none" stroke='#858585' xmlns="http://www.w3.org/2000/svg" xmlns:xlink="http://www.w3.org/1999/xlink">
	<defs/>
	<path id="Rectangle-14_12_" d="M11.42 7.57C11.42 8.42 11.19 9.26 10.73 10.03L10.5 10.49L10.96 11.96C11.11 12.49 11.5 12.88 12.03 13.19C12.5 13.42 12.8 13.88 12.8 14.42L12.8 14.73C12.8 15.34 12.26 15.88 11.65 15.88L1.65 15.88C1.03 15.88 0.5 15.34 0.5 14.73L0.5 14.42C0.5 13.88 0.8 13.42 1.26 13.19C1.73 12.96 2.11 12.49 2.34 11.96L2.8 10.49L2.57 10.03C1.19 7.8 1.96 4.8 4.19 3.49C4.96 3.03 5.8 2.8 6.65 2.8C9.26 2.8 11.42 4.96 11.42 7.57Z" stroke="#current" stroke-opacity="1.000000" stroke-width="1.000000" stroke-linejoin="round"/>
	<path id="Oval-13_6_" d="M6.65 20.49C5.8 20.49 5.11 19.81 5.11 18.96C5.11 18.11 5.8 17.42 6.65 17.42C7.5 17.42 8.19 18.11 8.19 18.96C8.19 19.81 7.5 20.49 6.65 20.49Z" stroke="current" stroke-opacity="1.000000" stroke-width="1.000000" stroke-linejoin="round"/>
	<path id="Path-57_12_" d="M5.11 2.8L5.11 2.03C5.11 1.19 5.8 0.5 6.65 0.5C7.5 0.5 8.19 1.19 8.19 2.03L8.19 2.8" stroke="current" stroke-opacity="1.000000" stroke-width="1.000000" stroke-linejoin="round" stroke-linecap="round"/>
</svg>
