<svg width="16.000000" height="16.000000" viewBox="0 0 16 16" fill="none" xmlns="http://www.w3.org/2000/svg" xmlns:xlink="http://www.w3.org/1999/xlink">
	<desc>
			Created with Pixso.
	</desc>
	<defs>
		<linearGradient x1="8.799990" y1="-2.518521" x2="6.537970" y2="25.925926" id="paint_linear_1_2790_0" gradientUnits="userSpaceOnUse">
			<stop stop-color="#FD749B"/>
			<stop offset="1.000000" stop-color="#281AC8"/>
		</linearGradient>
		<linearGradient x1="8.603953" y1="7.943740" x2="6.895849" y2="17.529501" id="paint_linear_1_2791_0" gradientUnits="userSpaceOnUse">
			<stop stop-color="#FD749B"/>
			<stop offset="1.000000" stop-color="#281AC8"/>
		</linearGradient>
		<linearGradient x1="8.604006" y1="0.966689" x2="6.895895" y2="10.552450" id="paint_linear_1_2792_0" gradientUnits="userSpaceOnUse">
			<stop stop-color="#FD749B"/>
			<stop offset="1.000000" stop-color="#281AC8"/>
		</linearGradient>
		<linearGradient x1="8.452679" y1="2.726616" x2="7.824713" y2="16.987034" id="paint_linear_1_2793_0" gradientUnits="userSpaceOnUse">
			<stop stop-color="#FD749B"/>
			<stop offset="1.000000" stop-color="#281AC8"/>
		</linearGradient>
	</defs>
	<path d="M8 0C3.57 0 0 3.57 0 8C0 12.42 3.57 16 8 16C12.42 16 16 12.42 16 8C16 3.57 12.42 0 8 0ZM8 15.02C4.12 15.02 0.97 11.87 0.97 8C0.97 4.12 4.12 0.97 8 0.97C11.87 0.97 15.02 4.12 15.02 8C15.02 11.87 11.87 15.02 8 15.02Z" fill="url(#paint_linear_1_2790_0)" fill-opacity="1.000000" fill-rule="evenodd"/>
	<path d="M13.66 8.8C13.4 8.74 13.14 8.9 13.08 9.16C13.06 9.22 13.05 9.27 13.04 9.33C12.43 11.62 10.39 13.21 8 13.21C5.6 13.21 3.56 11.62 2.95 9.33C2.94 9.27 2.92 9.22 2.91 9.16C2.85 8.9 2.59 8.74 2.33 8.8C2.07 8.86 1.91 9.12 1.97 9.38C1.98 9.44 1.99 9.5 2.01 9.56C2.71 12.24 5.15 14.18 8 14.18C10.84 14.18 13.28 12.24 13.98 9.56C14 9.5 14.01 9.44 14.02 9.38C14.08 9.12 13.92 8.86 13.66 8.8Z" fill="url(#paint_linear_1_2791_0)" fill-opacity="1.000000" fill-rule="evenodd"/>
	<path d="M2.01 6.43C1.99 6.49 1.98 6.55 1.97 6.61C1.9 6.91 2.13 7.2 2.44 7.2C2.66 7.2 2.86 7.05 2.91 6.83C2.92 6.77 2.94 6.72 2.95 6.67C3.55 4.37 5.6 2.78 8 2.78C10.39 2.78 12.43 4.37 13.04 6.66C13.05 6.72 13.06 6.77 13.08 6.83C13.14 7.09 13.4 7.25 13.66 7.19C13.92 7.13 14.08 6.87 14.02 6.61C14.01 6.55 14 6.49 13.98 6.43C13.28 3.75 10.84 1.81 8 1.81C5.15 1.81 2.71 3.75 2.01 6.43Z" fill="url(#paint_linear_1_2792_0)" fill-opacity="1.000000" fill-rule="evenodd"/>
	<path d="M8.39 11.52C8.39 11.79 8.17 12.01 7.9 12.01C7.63 12.01 7.42 11.79 7.42 11.52L7.42 10.83L6.49 10.83C6.22 10.83 6 10.61 6 10.35L6 5.64C6 5.38 6.22 5.16 6.49 5.16L7.42 5.16L7.42 4.47C7.42 4.2 7.63 3.98 7.9 3.98C8.17 3.98 8.39 4.2 8.39 4.47L8.39 5.16C8.4 5.16 8.41 5.16 8.42 5.16C9.28 5.22 9.97 5.94 9.97 6.82C9.97 7.12 9.89 7.4 9.75 7.64C9.73 7.68 9.71 7.71 9.69 7.74C9.68 7.75 9.68 7.76 9.67 7.77C9.68 7.77 9.69 7.78 9.7 7.78C9.73 7.81 9.76 7.83 9.79 7.85C10.19 8.16 10.45 8.63 10.45 9.17C10.45 10.09 9.7 10.83 8.79 10.83L8.39 10.83L8.39 11.52ZM8.42 9.86L8.79 9.86C9.17 9.86 9.48 9.55 9.48 9.17C9.48 8.85 9.26 8.58 8.97 8.5C8.91 8.49 8.85 8.48 8.79 8.48L6.97 8.48L6.97 9.86L8.42 9.86ZM7 7.51L8.31 7.51C8.38 7.51 8.45 7.5 8.51 7.48C8.59 7.45 8.67 7.41 8.74 7.36C8.9 7.24 9 7.04 9 6.82C9 6.47 8.75 6.19 8.42 6.14C8.38 6.13 8.35 6.13 8.31 6.13L6.97 6.13L6.97 7.51L7 7.51Z" fill="url(#paint_linear_1_2793_0)" fill-opacity="1.000000" fill-rule="evenodd"/>
</svg>
