<svg width="155.502686" height="115.000000" viewBox="0 0 155.503 115" fill="none" xmlns="http://www.w3.org/2000/svg" xmlns:xlink="http://www.w3.org/1999/xlink">
	<desc>
			Created with Pixso.
	</desc>
	<defs>
		<linearGradient x1="91.188133" y1="20.712955" x2="83.337524" y2="125.601837" id="paint_linear_1_10578_0" gradientUnits="userSpaceOnUse">
			<stop stop-color="#FD749B"/>
			<stop offset="1.000000" stop-color="#281AC8"/>
		</linearGradient>
		<linearGradient x1="98.129295" y1="20.712955" x2="90.278687" y2="125.601837" id="paint_linear_1_10579_0" gradientUnits="userSpaceOnUse">
			<stop stop-color="#FD749B"/>
			<stop offset="1.000000" stop-color="#281AC8"/>
		</linearGradient>
		<linearGradient x1="120.970695" y1="41.616539" x2="140.500000" y2="51.616539" id="paint_linear_1_10581_0" gradientUnits="userSpaceOnUse">
			<stop stop-color="#FC58B3"/>
			<stop offset="1.000000" stop-color="#FEAE68"/>
		</linearGradient>
	</defs>
	<circle id="Ellipse 28" cx="66.000000" cy="64.000000" r="51.000000" fill="#FD749B" fill-opacity="1.000000"/>
	<path id="Path-82_8_" d="M60.64 89L116.17 30" stroke="url(#paint_linear_1_10578_0)" stroke-opacity="1.000000" stroke-width="5.000000" stroke-linejoin="round" stroke-linecap="round"/>
	<path id="Path-82_9_" d="M67.58 30L123.11 89" stroke="url(#paint_linear_1_10579_0)" stroke-opacity="1.000000" stroke-width="5.000000" stroke-linejoin="round" stroke-linecap="round"/>
	<path id="Vector" d="M37.68 84.22C37.41 84.11 37.25 83.84 37.27 83.55C37.59 79.47 37.07 78.18 34.02 75.46C33.8 75.26 33.73 74.95 33.85 74.68C33.96 74.41 34.24 74.25 34.53 74.27C38.61 74.59 39.89 74.07 42.61 71.02C42.81 70.8 43.12 70.73 43.39 70.85C43.66 70.96 43.82 71.24 43.8 71.53C43.48 75.61 44 76.89 47.05 79.61C47.27 79.81 47.34 80.12 47.22 80.39C47.11 80.66 46.84 80.82 46.55 80.8C42.47 80.48 41.18 81 38.46 84.05C38.26 84.27 37.95 84.34 37.68 84.22Z" fill="#FFFFFF" fill-opacity="1.000000" fill-rule="nonzero"/>
	<path id="Vector 1" d="M125.83 47.06Q126.51 46.21 127.67 45.47Q128.91 44.69 130.34 44.27Q132 43.78 133.66 43.85Q135.58 43.94 137.32 44.78Q138.6 45.4 139.49 45.46Q140.15 45.5 140.62 45.21Q141.14 44.89 141.63 44.09Q142.15 43.24 142.68 41.76Q143.12 40.54 143.82 39.56Q144.5 38.62 145.39 37.94Q146.25 37.29 147.25 36.92Q148.21 36.57 149.22 36.51Q150.22 36.45 151.17 36.68Q152.14 36.91 152.97 37.42Q153.83 37.95 154.45 38.74Q155.1 39.55 155.42 40.57L152.57 41.48Q152.26 40.51 151.39 39.97Q150.98 39.72 150.47 39.59Q149.95 39.47 149.4 39.5Q148.83 39.54 148.28 39.74Q147.71 39.95 147.21 40.33Q146.07 41.19 145.5 42.77Q144.87 44.54 144.19 45.66Q143.32 47.06 142.2 47.76Q140.91 48.55 139.3 48.45Q137.82 48.35 136.01 47.48Q134.83 46.91 133.53 46.85Q132.37 46.8 131.19 47.15Q130.16 47.45 129.27 48.01Q128.89 48.25 128.59 48.51Q128.33 48.73 128.17 48.93L125.83 47.06ZM128.16 48.9L128.17 48.93C127.64 49.59 126.71 49.69 126.06 49.17C125.4 48.64 125.3 47.71 125.83 47.06L125.85 47.05L128.16 48.9ZM155.4 40.56L155.42 40.57C155.68 41.37 155.25 42.2 154.45 42.45C153.65 42.71 152.82 42.28 152.57 41.48L152.58 41.45L155.4 40.56Z" fill="url(#paint_linear_1_10581_0)" fill-opacity="1.000000" fill-rule="evenodd"/>
	<path id="Vector" d="M24.54 18.56L20.21 13.89L21.59 7.67C21.67 7.33 21.54 6.96 21.27 6.74C20.99 6.52 20.61 6.47 20.29 6.62L14.51 9.3L9.03 6.06C8.36 5.67 7.53 6.21 7.63 6.98L8.39 13.3L3.61 17.52C3.04 18.03 3.29 18.99 4.05 19.14L10.3 20.36C13.06 26.73 12.86 26.36 13.11 26.56C13.26 26.68 13.45 26.76 13.65 26.77C14 26.79 14.34 26.6 14.51 26.29L17.61 20.72L23.95 20.12C24.72 20.05 25.07 19.12 24.54 18.56Z" fill="#FFA92C" fill-opacity="1.000000" fill-rule="nonzero"/>
	<path id="Vector" d="M11.6 18L10.83 11.68C10.74 10.91 11.57 10.37 12.23 10.76L17.72 14L20.47 12.72L21.59 7.67C21.67 7.33 21.54 6.96 21.27 6.74C20.99 6.52 20.61 6.47 20.29 6.62L14.51 9.3L9.03 6.06C8.36 5.67 7.53 6.21 7.63 6.98L8.39 13.3L3.61 17.52C3.04 18.03 3.29 18.99 4.05 19.14L9.17 20.14L11.6 18Z" fill="#FF8828" fill-opacity="1.000000" fill-rule="nonzero"/>
</svg>
