<svg width="319.770020" height="193.361328" viewBox="0 0 319.77 193.361" fill="none" xmlns="http://www.w3.org/2000/svg" xmlns:xlink="http://www.w3.org/1999/xlink">
	<desc>
			Created with Pixso.
	</desc>
	<defs/>
	<path id="Vector" d="M53.97 128.16C49.56 128.16 46 124.54 46 120.08C46 115.61 49.56 112 53.97 112C58.37 112 61.93 115.61 61.93 120.08C61.93 124.54 58.37 128.16 53.97 128.16Z" stroke="#FFFFFF" stroke-opacity="1.000000" stroke-width="1.090000"/>
	<path id="Vector" d="M57.02 174.42C59.51 174.7 61.96 175.24 64.34 176.03L64.44 176.06L64.7 176.15C77.97 180.89 84.06 180 89.28 178.4C103.35 174.07 111.73 155.44 134.55 159.05C144.23 160.55 152.02 162.65 158.09 166.89L158.22 166.99C159.09 167.6 159.94 168.22 160.73 168.86C172.6 176.61 184.43 166.5 187.82 164.22C188.07 164.04 188.32 162.6 188.59 162.42L188.8 162.26C203.67 151.77 227.33 141.15 250.11 143.76C289.32 148.24 305.07 192.68 305.07 192.68L12.26 192.68C16.84 182.17 35.14 171.92 57.02 174.42Z" fill="#E3CDC9" fill-opacity="1.000000" fill-rule="nonzero"/>
	<path id="Vector" d="M298.06 101.06C296.51 101.06 295.25 99.78 295.25 98.21C295.25 96.64 296.51 95.37 298.06 95.37C299.61 95.37 300.86 96.64 300.86 98.21C300.86 99.78 299.61 101.06 298.06 101.06Z" stroke="#FFFFFF" stroke-opacity="1.000000" stroke-width="1.090000"/>
	<path id="Vector" d="M168.16 32.33C167.99 32.57 167.76 32.76 167.48 32.86C167.2 32.97 166.9 33 166.61 32.93C166.32 32.87 166.06 32.72 165.85 32.51C165.64 32.3 165.5 32.03 165.45 31.74C165.39 31.45 165.43 31.15 165.54 30.87C165.66 30.6 165.85 30.37 166.1 30.2C166.34 30.04 166.63 29.95 166.93 29.95C167.33 29.96 167.72 30.13 168 30.42C168.28 30.71 168.44 31.1 168.44 31.5C168.43 31.8 168.33 32.08 168.16 32.33Z" stroke="#FFFFFF" stroke-opacity="1.000000" stroke-width="1.090000"/>
	<path id="Vector" d="M102.44 23.19C102.44 23.19 102.12 20.59 94.86 18.52C87.59 16.44 82.38 21.77 74.17 18.52C65.96 15.27 61.6 10.62 51.02 13.21C40.44 15.8 37.06 23.19 37.06 23.19L102.44 23.19Z" stroke="#FAFAFA" stroke-opacity="1.000000" stroke-width="1.100000" stroke-linejoin="round"/>
	<path id="Vector" d="M278.14 46.12C278.14 46.12 277.97 44.49 274.22 43.18C270.47 41.87 267.77 45.22 263.52 43.18C259.27 41.14 257.02 38.21 251.55 39.84C249.97 40.31 248.5 41.1 247.25 42.19C246 43.27 245.01 44.61 244.33 46.12L278.14 46.12Z" stroke="#FAFAFA" stroke-opacity="1.000000" stroke-width="1.100000" stroke-linejoin="round"/>
	<path id="Vector" d="M217.19 1.76C223.23 2.73 227.34 8.42 226.37 14.46C225.4 20.5 219.71 24.61 213.67 23.64C207.62 22.67 203.51 16.98 204.49 10.94C205.46 4.89 211.15 0.78 217.19 1.76Z" fill="#FDB9B9" fill-opacity="1.000000" fill-rule="evenodd"/>
	<path id="Vector" d="M94.24 76.67L209.28 76.67L209.28 192.09L94.24 192.09L94.24 76.67Z" fill="#FFFFFF" fill-opacity="1.000000" fill-rule="evenodd"/>
	<path id="Vector" d="M209.29 58.52L209.29 76.67L94.24 76.67L94.24 58.52C94.24 56.79 94.93 55.13 96.16 53.9C97.38 52.67 99.04 51.99 100.78 51.99L202.76 51.99C204.49 51.99 206.15 52.68 207.38 53.9C208.6 55.13 209.29 56.79 209.29 58.52Z" fill="#8155FF" fill-opacity="1.000000" fill-rule="nonzero"/>
	<path id="Vector" d="M196.87 63.26C196.87 66.25 194.45 68.67 191.46 68.67C188.47 68.67 186.04 66.25 186.04 63.26C186.04 60.27 188.47 57.85 191.46 57.85C194.45 57.85 196.87 60.27 196.87 63.26Z" fill="#2B4183" fill-opacity="1.000000" fill-rule="evenodd"/>
	<path id="Vector" d="M191.46 65.3C192.28 65.3 193.07 64.97 193.65 64.39C194.23 63.81 194.56 63.02 194.56 62.2L194.56 48.18C194.56 47.36 194.23 46.57 193.65 45.99C193.07 45.41 192.28 45.08 191.46 45.08C190.63 45.08 189.85 45.41 189.26 45.99C188.68 46.57 188.36 47.36 188.36 48.18L188.36 62.2C188.36 63.02 188.68 63.81 189.26 64.39C189.85 64.97 190.63 65.3 191.46 65.3Z" fill="#FFCB2D" fill-opacity="1.000000" fill-rule="nonzero"/>
	<path id="Vector" d="M158.67 63.26C158.67 66.25 156.25 68.67 153.26 68.67C150.27 68.67 147.85 66.25 147.85 63.26C147.85 60.27 150.27 57.85 153.26 57.85C156.25 57.85 158.67 60.27 158.67 63.26Z" fill="#2B4183" fill-opacity="1.000000" fill-rule="evenodd"/>
	<path id="Vector" d="M153.26 65.3C154.08 65.3 154.87 64.97 155.45 64.39C156.03 63.81 156.36 63.02 156.36 62.2L156.36 48.18C156.36 47.36 156.03 46.57 155.45 45.99C154.87 45.41 154.08 45.08 153.26 45.08C152.44 45.08 151.65 45.41 151.07 45.99C150.48 46.57 150.16 47.36 150.16 48.18L150.16 62.2C150.16 63.02 150.48 63.81 151.07 64.39C151.65 64.97 152.44 65.3 153.26 65.3Z" fill="#FFCB2D" fill-opacity="1.000000" fill-rule="nonzero"/>
	<path id="Vector" d="M120.47 63.26C120.47 66.25 118.05 68.67 115.06 68.67C112.07 68.67 109.65 66.25 109.65 63.26C109.65 60.27 112.07 57.85 115.06 57.85C118.05 57.85 120.47 60.27 120.47 63.26Z" fill="#2B4183" fill-opacity="1.000000" fill-rule="evenodd"/>
	<path id="Vector" d="M115.07 65.3C115.89 65.3 116.68 64.97 117.26 64.39C117.84 63.81 118.17 63.02 118.17 62.2L118.17 48.18C118.17 47.36 117.84 46.57 117.26 45.99C116.68 45.41 115.89 45.08 115.07 45.08C114.24 45.08 113.45 45.41 112.87 45.99C112.29 46.57 111.96 47.36 111.96 48.18L111.96 62.2C111.96 63.02 112.29 63.81 112.87 64.39C113.45 64.97 114.24 65.3 115.07 65.3Z" fill="#FFCB2D" fill-opacity="1.000000" fill-rule="nonzero"/>
	<path id="Vector" d="M170.41 117.1L170.41 95.23L192.29 95.23L192.29 117.1L170.41 117.1Z" stroke="#F0E0DF" stroke-opacity="1.000000" stroke-width="2.210000"/>
	<path id="Vector" d="M141.31 117.1L141.31 95.23L163.18 95.23L163.18 117.1L141.31 117.1Z" stroke="#F0E0DF" stroke-opacity="1.000000" stroke-width="2.210000"/>
	<path id="Vector" d="M112.21 117.1L112.21 95.23L134.08 95.23L134.08 117.1L112.21 117.1Z" stroke="#F0E0DF" stroke-opacity="1.000000" stroke-width="2.210000"/>
	<path id="Vector" d="M170.41 144.86L170.41 122.99L192.29 122.99L192.29 144.86L170.41 144.86Z" stroke="#F0E0DF" stroke-opacity="1.000000" stroke-width="2.210000"/>
	<path id="Vector" d="M141.31 144.86L141.31 122.99L163.18 122.99L163.18 144.86L141.31 144.86Z" stroke="#F0E0DF" stroke-opacity="1.000000" stroke-width="2.210000"/>
	<path id="Vector" d="M134.08 144.86L112.21 144.86L112.21 122.99L134.08 122.99L134.08 144.86Z" fill="#F88AA0" fill-opacity="1.000000" fill-rule="evenodd"/>
	<path id="Vector" d="M120.11 130.8L126.17 137.05" stroke="#FFFFFF" stroke-opacity="1.000000" stroke-width="2.020000"/>
	<path id="Vector" d="M126.17 130.8L120.11 137.05" stroke="#FFFFFF" stroke-opacity="1.000000" stroke-width="2.020000"/>
	<path id="Vector" d="M170.41 172.63L170.41 150.76L192.29 150.76L192.29 172.63L170.41 172.63Z" stroke="#F0E0DF" stroke-opacity="1.000000" stroke-width="2.210000"/>
	<path id="Vector" d="M141.31 172.63L141.31 150.76L163.18 150.76L163.18 172.63L141.31 172.63Z" stroke="#F0E0DF" stroke-opacity="1.000000" stroke-width="2.210000"/>
	<path id="Vector" d="M112.21 172.63L112.21 150.76L134.08 150.76L134.08 172.63L112.21 172.63Z" stroke="#F0E0DF" stroke-opacity="1.000000" stroke-width="2.210000"/>
	<path id="Vector" d="M196.67 116.04L207.31 116.04L207.31 123.05L196.67 123.05L196.67 116.04Z" fill="#FFA80A" fill-opacity="1.000000" fill-rule="evenodd"/>
	<path id="Vector" d="M208.95 117.86L195.03 117.86C194.27 117.86 193.54 117.56 193 117.02C192.46 116.48 192.16 115.75 192.16 114.99C192.16 114.61 192.23 114.24 192.38 113.89C192.52 113.54 192.73 113.22 193 112.96C193.27 112.69 193.58 112.48 193.93 112.33C194.28 112.19 194.65 112.11 195.03 112.11L208.95 112.11C209.71 112.11 210.45 112.42 210.98 112.95C211.52 113.49 211.83 114.23 211.83 114.99C211.83 115.75 211.52 116.48 210.98 117.02C210.44 117.56 209.71 117.86 208.95 117.86Z" fill="#FFCB2D" fill-opacity="1.000000" fill-rule="nonzero"/>
	<path id="Vector" d="M170.18 132.68L176.18 126.67L180.41 130.91L174.41 136.91L170.18 132.68Z" fill="#FFA80A" fill-opacity="1.000000" fill-rule="evenodd"/>
	<path id="Vector" d="M178.07 126.43L169.69 134.82C169.28 135.22 168.73 135.45 168.16 135.45C167.58 135.45 167.03 135.22 166.63 134.82C166.22 134.41 165.99 133.86 165.99 133.28C165.99 132.71 166.22 132.16 166.63 131.75L175.01 123.37C175.42 122.97 175.97 122.74 176.54 122.74C177.12 122.74 177.67 122.97 178.07 123.37C178.48 123.78 178.7 124.33 178.7 124.9C178.7 125.48 178.48 126.03 178.07 126.43Z" fill="#FFCB2D" fill-opacity="1.000000" fill-rule="nonzero"/>
	<path id="Vector" d="M237.85 156.01C237.85 175.88 221.74 191.99 201.87 191.99C181.99 191.99 165.88 175.88 165.88 156.01C165.88 136.14 181.99 120.03 201.87 120.03C221.74 120.03 237.85 136.14 237.85 156.01Z" fill="#F67B91" fill-opacity="1.000000" fill-rule="evenodd"/>
	<path id="Vector" d="M235.91 156.01C235.91 174.81 220.67 190.06 201.87 190.06C183.06 190.06 167.82 174.81 167.82 156.01C167.82 137.21 183.06 121.96 201.87 121.96C220.67 121.96 235.91 137.21 235.91 156.01Z" fill="#F88AA0" fill-opacity="1.000000" fill-rule="evenodd"/>
	<path id="Vector" d="M232.07 156.01C232.07 172.69 218.54 186.21 201.86 186.21C185.18 186.21 171.66 172.69 171.66 156.01C171.66 139.33 185.18 125.81 201.86 125.81C218.54 125.81 232.07 139.33 232.07 156.01Z" fill="#F6F6F6" fill-opacity="1.000000" fill-rule="evenodd"/>
	<path id="Vector" d="M202.02 132.61C201.82 132.61 201.62 132.53 201.48 132.39C201.34 132.25 201.26 132.06 201.26 131.86L201.26 130.07C201.28 129.89 201.37 129.72 201.51 129.59C201.65 129.47 201.83 129.4 202.01 129.4C202.2 129.4 202.38 129.47 202.52 129.59C202.66 129.72 202.74 129.89 202.77 130.07L202.77 131.86C202.77 132.06 202.69 132.25 202.55 132.39C202.41 132.53 202.22 132.61 202.02 132.61Z" fill="#8054FF" fill-opacity="1.000000" fill-rule="nonzero"/>
	<path id="Vector" d="M202.02 183.08C201.81 183.07 201.62 182.99 201.48 182.85C201.34 182.71 201.26 182.51 201.26 182.31L201.26 180.53C201.24 180.43 201.25 180.32 201.29 180.22C201.32 180.11 201.37 180.02 201.44 179.94C201.52 179.86 201.6 179.8 201.7 179.75C201.8 179.71 201.9 179.69 202.01 179.69C202.12 179.69 202.22 179.71 202.32 179.75C202.42 179.8 202.51 179.86 202.58 179.94C202.65 180.02 202.7 180.11 202.73 180.22C202.77 180.32 202.78 180.43 202.76 180.53L202.76 182.31C202.77 182.51 202.69 182.7 202.55 182.85C202.41 182.99 202.22 183.07 202.02 183.08Z" fill="#8054FF" fill-opacity="1.000000" fill-rule="nonzero"/>
	<path id="Vector" d="M184.81 139.74C184.61 139.74 184.41 139.66 184.27 139.52L183.01 138.26C182.87 138.12 182.79 137.92 182.79 137.72C182.79 137.52 182.87 137.32 183.01 137.18C183.16 137.04 183.35 136.96 183.55 136.96C183.75 136.96 183.95 137.04 184.09 137.18L185.35 138.44C185.42 138.51 185.48 138.6 185.52 138.69C185.55 138.78 185.57 138.88 185.57 138.98C185.57 139.08 185.55 139.18 185.52 139.27C185.48 139.37 185.42 139.45 185.35 139.52C185.2 139.66 185.01 139.74 184.81 139.74Z" fill="#8054FF" fill-opacity="1.000000" fill-rule="nonzero"/>
	<path id="Vector" d="M220.49 175.42C220.39 175.42 220.29 175.4 220.2 175.36C220.1 175.33 220.02 175.27 219.95 175.2L218.7 173.94C218.55 173.8 218.47 173.6 218.47 173.4C218.47 173.2 218.55 173.01 218.7 172.86C218.84 172.72 219.03 172.64 219.24 172.64C219.44 172.64 219.63 172.72 219.77 172.86L221.03 174.12C221.11 174.19 221.16 174.28 221.2 174.37C221.24 174.46 221.26 174.56 221.26 174.66C221.26 174.76 221.24 174.86 221.2 174.95C221.16 175.05 221.11 175.13 221.03 175.2C220.96 175.27 220.88 175.33 220.78 175.37C220.69 175.4 220.59 175.42 220.49 175.42Z" fill="#8054FF" fill-opacity="1.000000" fill-rule="nonzero"/>
	<path id="Vector" d="M183.55 175.42C183.45 175.42 183.35 175.4 183.26 175.36C183.16 175.32 183.08 175.26 183.01 175.18C182.94 175.11 182.89 175.03 182.85 174.94C182.81 174.85 182.79 174.75 182.79 174.65C182.79 174.55 182.81 174.45 182.85 174.36C182.89 174.26 182.94 174.18 183.01 174.11L184.27 172.85C184.42 172.7 184.61 172.62 184.81 172.62C185.01 172.62 185.21 172.7 185.35 172.85C185.49 172.99 185.57 173.18 185.57 173.39C185.57 173.59 185.49 173.78 185.35 173.92L184.08 175.18C184.01 175.26 183.93 175.32 183.84 175.36C183.75 175.4 183.65 175.42 183.55 175.42Z" fill="#8054FF" fill-opacity="1.000000" fill-rule="nonzero"/>
	<path id="Vector" d="M219.22 139.74C219.02 139.73 218.84 139.64 218.7 139.5C218.63 139.43 218.57 139.35 218.53 139.25C218.49 139.16 218.47 139.06 218.47 138.96C218.47 138.86 218.49 138.76 218.53 138.67C218.57 138.58 218.63 138.49 218.7 138.42L219.96 137.16C220.1 137.02 220.29 136.94 220.5 136.94C220.7 136.94 220.89 137.02 221.03 137.16C221.18 137.31 221.26 137.5 221.26 137.7C221.26 137.9 221.18 138.1 221.03 138.24L219.76 139.5C219.69 139.57 219.61 139.63 219.52 139.67C219.43 139.72 219.33 139.74 219.22 139.74Z" fill="#8054FF" fill-opacity="1.000000" fill-rule="nonzero"/>
	<path id="Vector" d="M177.68 156.95L175.9 156.95C175.79 156.96 175.68 156.95 175.58 156.92C175.48 156.89 175.38 156.83 175.3 156.76C175.22 156.69 175.16 156.6 175.12 156.51C175.07 156.41 175.05 156.3 175.05 156.2C175.05 156.09 175.07 155.98 175.12 155.89C175.16 155.79 175.22 155.7 175.3 155.63C175.38 155.56 175.48 155.5 175.58 155.47C175.68 155.44 175.79 155.43 175.9 155.44L177.68 155.44C177.86 155.46 178.04 155.55 178.16 155.69C178.28 155.83 178.35 156.01 178.35 156.2C178.35 156.38 178.28 156.56 178.16 156.7C178.04 156.84 177.86 156.93 177.68 156.95Z" fill="#8054FF" fill-opacity="1.000000" fill-rule="nonzero"/>
	<path id="Vector" d="M228.14 156.95L226.35 156.95C226.25 156.96 226.14 156.95 226.04 156.92C225.93 156.89 225.84 156.83 225.76 156.76C225.68 156.69 225.62 156.6 225.57 156.51C225.53 156.41 225.51 156.3 225.51 156.2C225.51 156.09 225.53 155.98 225.57 155.89C225.62 155.79 225.68 155.7 225.76 155.63C225.84 155.56 225.93 155.5 226.04 155.47C226.14 155.44 226.25 155.43 226.35 155.44L228.14 155.44C228.24 155.43 228.35 155.44 228.45 155.47C228.55 155.5 228.65 155.56 228.73 155.63C228.81 155.7 228.87 155.79 228.92 155.89C228.96 155.98 228.98 156.09 228.98 156.2C228.98 156.3 228.96 156.41 228.92 156.51C228.87 156.6 228.81 156.69 228.73 156.76C228.65 156.83 228.55 156.89 228.45 156.92C228.35 156.95 228.24 156.96 228.14 156.95Z" fill="#8054FF" fill-opacity="1.000000" fill-rule="nonzero"/>
	<path id="Vector" d="M203.83 155.91L200.2 155.91L200.2 140.17C200.2 139.69 200.39 139.23 200.73 138.89C201.07 138.55 201.53 138.35 202.02 138.35C202.25 138.35 202.49 138.4 202.71 138.49C202.93 138.58 203.13 138.72 203.3 138.88C203.47 139.05 203.6 139.25 203.69 139.47C203.78 139.69 203.83 139.93 203.83 140.17L203.83 155.91Z" fill="#8054FF" fill-opacity="1.000000" fill-rule="nonzero"/>
	<path id="Vector" d="M206.18 155.9C206.18 158.2 204.31 160.07 202.02 160.07C199.72 160.07 197.85 158.2 197.85 155.9C197.85 153.61 199.72 151.74 202.02 151.74C204.31 151.74 206.18 153.61 206.18 155.9Z" fill="#2B4183" fill-opacity="1.000000" fill-rule="evenodd"/>
	<path id="Vector" d="M275.54 170.66L265.59 166.03L269.18 160.43L280 165.69L276.82 170.11L275.54 170.66Z" fill="#FA849B" fill-opacity="1.000000" fill-rule="nonzero"/>
	<path id="Vector" d="M277.53 163.52C277.53 163.52 276.16 169.62 271.43 169.5L270.26 183.92L283.4 165.59L277.53 163.52Z" fill="#181F42" fill-opacity="1.000000" fill-rule="nonzero"/>
	<path id="Vector" d="M286.44 166.55L273.35 184.81L271.63 183.58L284.71 165.31L286.44 166.55Z" fill="#FFFFFF" fill-opacity="1.000000" fill-rule="evenodd"/>
	<path id="Vector" d="M271.27 171.38C272.14 171.1 273.06 170.97 273.97 170.98" stroke="#FFFFFF" stroke-opacity="1.000000" stroke-width="1.550000" stroke-linejoin="round" stroke-linecap="round"/>
	<path id="Vector" d="M270.97 173.5C271.84 173.22 272.75 173.08 273.67 173.1" stroke="#FFFFFF" stroke-opacity="1.000000" stroke-width="1.550000" stroke-linejoin="round" stroke-linecap="round"/>
	<path id="Vector" d="M270.66 175.61C271.53 175.33 272.44 175.2 273.36 175.21" stroke="#FFFFFF" stroke-opacity="1.000000" stroke-width="1.550000" stroke-linejoin="round" stroke-linecap="round"/>
	<path id="Vector" d="M252.45 110.1C252.45 110.1 245.95 134.36 244.99 139.14C244.04 143.92 242.12 153.49 246.14 156.93C250.16 160.38 265.6 168.65 265.6 168.65L271.27 158.46L262.08 152.93L252.45 110.1Z" fill="#243B77" fill-opacity="1.000000" fill-rule="nonzero"/>
	<path id="Vector" d="M261.22 187.24L259.19 176.46L265.82 176.12L267.85 187.97L262.41 187.97L261.22 187.24Z" fill="#FA849B" fill-opacity="1.000000" fill-rule="nonzero"/>
	<path id="Vector" d="M268.18 184.7C268.18 184.7 262.42 187.14 259.76 183.23L247.35 190.67L269.9 190.67L268.18 184.7Z" fill="#181F42" fill-opacity="1.000000" fill-rule="nonzero"/>
	<path id="Vector" d="M269.92 192.8L247.37 192.8L247.37 190.67L269.92 190.67L269.92 192.8Z" fill="#FFFFFF" fill-opacity="1.000000" fill-rule="evenodd"/>
	<path id="Vector" d="M258.15 184.19C258.88 184.74 259.52 185.4 260.04 186.16" stroke="#FFFFFF" stroke-opacity="1.000000" stroke-width="1.550000" stroke-linejoin="round" stroke-linecap="round"/>
	<path id="Vector" d="M256.25 185.17C256.98 185.72 257.62 186.39 258.15 187.14" stroke="#FFFFFF" stroke-opacity="1.000000" stroke-width="1.550000" stroke-linejoin="round" stroke-linecap="round"/>
	<path id="Vector" d="M254.35 186.16C255.08 186.7 255.72 187.37 256.25 188.12" stroke="#FFFFFF" stroke-opacity="1.000000" stroke-width="1.550000" stroke-linejoin="round" stroke-linecap="round"/>
	<path id="Vector" d="M252.45 110.1L251.8 146.69C251.78 148 251.89 149.32 252.12 150.61L257.55 178.83L268.96 178.83L265.78 147C265.92 141.15 267.86 134.59 268.59 127.45C268.59 127.45 270.82 114.21 264.7 110.16L252.45 110.1Z" fill="#2B4183" fill-opacity="1.000000" fill-rule="nonzero"/>
	<path id="Vector" d="M245.17 105.08L226.57 98.27L224.41 101.89L242.55 111.5C243.23 111.76 243.98 111.84 244.7 111.72C245.43 111.6 246.11 111.29 246.68 110.82C247.24 110.35 247.67 109.73 247.92 109.04C248.17 108.35 248.24 107.6 248.1 106.88C247.85 105.42 246.57 105.57 245.17 105.08Z" fill="#FA849B" fill-opacity="1.000000" fill-rule="nonzero"/>
	<path id="Vector" d="M224.28 95.51C224.12 95.33 223.91 95.2 223.68 95.13C223.46 95.06 223.21 95.05 222.98 95.1C222.85 95.13 222.72 95.19 222.62 95.28C222.51 95.37 222.43 95.48 222.38 95.61C222.33 95.73 222.31 95.87 222.33 96.01C222.35 96.14 222.4 96.27 222.48 96.39L222.74 96.82C222.15 97.05 220.91 97.11 218.66 94.81C218.49 94.63 218.25 94.51 218 94.47C217.75 94.43 217.49 94.48 217.27 94.61C217.13 94.71 217.02 94.86 216.98 95.03C216.95 95.2 216.97 95.37 217.05 95.53L217.08 95.57C216.94 95.52 216.78 95.5 216.62 95.52C216.46 95.53 216.31 95.58 216.18 95.67C216.04 95.77 215.93 95.92 215.89 96.09C215.86 96.26 215.88 96.44 215.97 96.59C215.99 96.63 216.01 96.67 216.04 96.71C215.89 96.73 215.75 96.78 215.62 96.86C215.48 96.96 215.38 97.11 215.34 97.28C215.3 97.45 215.32 97.63 215.41 97.78C215.46 97.88 215.52 97.97 215.6 98.04L215.69 98.13L215.65 98.16C215.5 98.26 215.41 98.4 215.37 98.57C215.33 98.74 215.35 98.92 215.44 99.07C215.48 99.17 215.55 99.26 215.63 99.34C216.2 99.92 216.81 100.45 217.48 100.91L217.51 100.91C217.78 101.09 218.06 101.26 218.36 101.41C219.66 102.17 222.45 101.54 224.84 101.92L226.72 98.4L224.28 95.51Z" fill="#FA849B" fill-opacity="1.000000" fill-rule="nonzero"/>
	<path id="Vector" d="M226.69 87.62L217.69 108.17L197.15 99.17L206.14 78.63L226.69 87.62Z" fill="#FFCD2E" fill-opacity="1.000000" fill-rule="evenodd"/>
	<path id="Vector" d="M224.59 95.88L222.76 93.76C222.69 93.68 222.61 93.62 222.51 93.57C222.41 93.53 222.31 93.5 222.2 93.5C222.09 93.5 221.99 93.53 221.89 93.57C221.79 93.62 221.71 93.68 221.64 93.76C221.54 93.87 221.48 94.01 221.46 94.16C221.45 94.3 221.47 94.45 221.54 94.58L222.46 96.4C222.25 97.19 222.24 98.03 222.43 98.83C222.62 99.63 223 100.37 223.54 100.99L224.59 95.88Z" fill="#FA849B" fill-opacity="1.000000" fill-rule="nonzero"/>
	<path id="Vector" d="M253.41 105.46L246.64 110.85C245.98 111.39 245.16 111.7 244.31 111.75C243.46 111.81 242.61 111.59 241.88 111.14C239.79 109.85 238.5 108.66 240.01 106.71L247.45 99.17L253.41 105.46Z" fill="#FA849B" fill-opacity="1.000000" fill-rule="nonzero"/>
	<path id="Vector" d="M258.66 98.99C258.66 98.99 257.76 103.43 252.42 107.47L244.18 99.69L250.86 92.26L258.66 98.99Z" fill="#7041FD" fill-opacity="1.000000" fill-rule="nonzero"/>
	<path id="Vector" d="M271.51 104.87L285.83 122.91L289.07 120.76C289.07 120.76 280.85 105.47 277.04 100.66C276.58 100.08 275.98 99.64 275.29 99.37C274.6 99.11 273.86 99.03 273.13 99.15C272.4 99.27 271.72 99.58 271.16 100.05C270.59 100.52 270.16 101.13 269.9 101.82C269.39 103.21 270.56 103.72 271.51 104.87Z" fill="#FA849B" fill-opacity="1.000000" fill-rule="nonzero"/>
	<path id="Vector" d="M286.55 126.56C286.61 126.78 286.72 126.99 286.89 127.16C287.05 127.32 287.25 127.45 287.47 127.51C287.6 127.56 287.74 127.56 287.87 127.54C288 127.51 288.12 127.46 288.23 127.37C288.33 127.29 288.41 127.18 288.46 127.05C288.51 126.93 288.53 126.79 288.51 126.66L288.51 126.16C289.13 126.24 290.21 126.76 291.08 129.76C291.14 130 291.28 130.21 291.48 130.36C291.68 130.51 291.92 130.59 292.17 130.58C292.34 130.56 292.49 130.48 292.61 130.35C292.72 130.23 292.78 130.06 292.78 129.89C292.78 129.89 292.78 129.86 292.78 129.84C292.88 129.96 293.01 130.05 293.15 130.11C293.29 130.17 293.45 130.19 293.6 130.18C293.77 130.16 293.92 130.08 294.03 129.96C294.14 129.83 294.2 129.67 294.2 129.5C294.21 129.45 294.21 129.4 294.2 129.35C294.34 129.41 294.49 129.43 294.64 129.42C294.8 129.4 294.96 129.32 295.07 129.2C295.18 129.07 295.24 128.91 295.24 128.74C295.25 128.63 295.23 128.52 295.2 128.42C295.2 128.38 295.18 128.34 295.17 128.3L295.21 128.3C295.38 128.28 295.54 128.21 295.65 128.08C295.76 127.95 295.82 127.79 295.82 127.62C295.82 127.51 295.81 127.41 295.78 127.3C295.57 126.54 295.28 125.81 294.94 125.1L294.94 125.07C294.78 124.78 294.62 124.5 294.43 124.23C293.68 122.98 291 122.22 289.13 120.78L285.83 122.91L286.55 126.56Z" fill="#FA849B" fill-opacity="1.000000" fill-rule="nonzero"/>
	<path id="Vector" d="M269.37 93.73L275.91 99.44C276.55 100.01 277 100.76 277.2 101.58C277.4 102.41 277.34 103.29 277.03 104.08C276.12 106.37 275.17 107.84 273.01 106.7L264.24 100.7L269.37 93.73Z" fill="#FA849B" fill-opacity="1.000000" fill-rule="nonzero"/>
	<path id="Vector" d="M260.99 89.74C264.91 90.06 268.6 91.69 271.47 94.38L267.03 102.63L258.31 99.61L260.99 89.74Z" fill="#8155FF" fill-opacity="1.000000" fill-rule="nonzero"/>
	<path id="Vector" d="M253.92 90.24C253.92 90.24 248.51 91.75 248.49 99C248.49 102.97 252.45 110.11 252.45 110.11L264.67 110.17C264.67 110.17 266.47 105.19 267.54 100.69C268.62 96.19 265.18 91.91 261.01 89.75L253.92 90.24Z" fill="#8155FF" fill-opacity="1.000000" fill-rule="nonzero"/>
	<path id="Vector" d="M267.05 102.63L262.25 99.19L265.95 106.35L267.05 102.63Z" fill="#7041FD" fill-opacity="1.000000" fill-rule="nonzero"/>
	<path id="Vector" d="M257.01 92.56C258.7 92.3 259.31 91.17 259.06 89.48L257.17 79.75L252.05 80.57L253.48 89.95C253.54 90.35 253.68 90.74 253.89 91.09C254.1 91.44 254.38 91.74 254.7 91.98C255.03 92.23 255.4 92.4 255.8 92.5C256.2 92.6 256.61 92.62 257.01 92.56Z" fill="#F8879D" fill-opacity="1.000000" fill-rule="nonzero"/>
	<path id="Vector" d="M256 81.7C256 81.7 257.66 86.88 253.26 88.65L252.85 85.55L257.38 82.14L256 81.7Z" fill="#32292A" fill-opacity="1.000000" fill-rule="nonzero"/>
	<path id="Vector" d="M252.21 86.19C255.4 85.89 257.77 83.33 257.5 80.48L256.62 71.15L251.24 71.15C249.23 71.33 246.52 73.97 246.71 75.73L247.65 81.53C247.85 83.62 249.52 86.45 252.21 86.19Z" fill="#F8879D" fill-opacity="1.000000" fill-rule="nonzero"/>
	<path id="Vector" d="M247.87 78.18L246.65 81.31C246.6 81.38 246.59 81.47 246.59 81.55C246.59 81.64 246.62 81.72 246.67 81.79C246.72 81.86 246.79 81.92 246.87 81.95C246.95 81.98 247.03 82 247.12 81.98L249.22 81.79L247.87 78.18Z" fill="#F8879D" fill-opacity="1.000000" fill-rule="nonzero"/>
	<path id="Vector" d="M248.94 76.71C248.94 76.71 247.8 76.74 247.84 77.21C247.84 77.21 247.88 77.54 248.88 77.49C249.88 77.44 250.12 77.34 250.18 77.02C250.24 76.7 249.48 76.67 248.94 76.71Z" fill="#312725" fill-opacity="1.000000" fill-rule="nonzero"/>
	<path id="Vector" d="M249 78.98C249.04 79.05 249.06 79.12 249.05 79.2C249.05 79.28 249.03 79.36 248.99 79.43C248.96 79.5 248.91 79.56 248.84 79.6C248.78 79.65 248.7 79.68 248.62 79.69C248.55 79.7 248.47 79.7 248.39 79.67C248.32 79.65 248.25 79.6 248.19 79.55C248.14 79.49 248.1 79.42 248.07 79.35C248.05 79.27 248.04 79.19 248.05 79.12C248.04 78.99 248.07 78.86 248.14 78.75C248.22 78.65 248.33 78.58 248.46 78.55C248.59 78.54 248.72 78.58 248.82 78.66C248.92 78.74 248.98 78.85 249 78.98Z" fill="#312725" fill-opacity="1.000000" fill-rule="nonzero"/>
	<path id="Vector" d="M248.64 82.62C248.9 82.59 249.16 82.49 249.37 82.32C249.58 82.16 249.73 81.93 249.81 81.68" stroke="#312725" stroke-opacity="1.000000" stroke-width="0.600000" stroke-linejoin="round" stroke-linecap="round"/>
	<path id="Vector" d="M257.52 89.19L260.99 89.74C260.99 89.74 257.35 95.64 253.76 94.22C249.63 92.59 255.11 89.49 255.11 89.49L257.52 89.19Z" fill="#F8879D" fill-opacity="1.000000" fill-rule="nonzero"/>
	<path id="Vector" d="M256.07 78.59C255.29 78.39 254.58 77.99 254.02 77.42C253.45 76.85 253.04 76.14 252.85 75.36L245.69 76.78C245.69 76.78 244.58 69.64 253.15 68.3C257.45 67.62 260.19 69.7 261.64 71.78C262.31 72.77 262.7 73.91 262.8 75.1C262.89 76.28 262.69 77.48 262.19 78.56C261.25 80.55 259.73 82.21 257.83 83.32L257.17 79.76C257.17 79.76 256.55 78.72 256.07 78.59Z" fill="#32292A" fill-opacity="1.000000" fill-rule="nonzero"/>
	<path id="Vector" d="M259.5 78.08C259.49 78.51 259.34 78.94 259.08 79.29C258.83 79.65 258.47 79.92 258.06 80.08C257.65 80.23 257.2 80.26 256.78 80.17C256.35 80.07 255.96 79.85 255.66 79.53C255.35 79.21 255.15 78.81 255.08 78.38C255 77.95 255.05 77.5 255.23 77.1C255.4 76.7 255.69 76.36 256.06 76.12C256.43 75.88 256.86 75.75 257.3 75.76C257.59 75.76 257.89 75.83 258.16 75.95C258.43 76.07 258.68 76.24 258.88 76.46C259.09 76.67 259.25 76.93 259.35 77.21C259.46 77.48 259.51 77.78 259.5 78.08Z" fill="#F8879D" fill-opacity="1.000000" fill-rule="nonzero"/>
	<path id="Vector" d="M256.51 78.61C256.51 78.61 256.51 76.94 258.07 77.21" stroke="#312725" stroke-opacity="1.000000" stroke-width="0.600000" stroke-linejoin="round" stroke-linecap="round"/>
	<path id="Vector" d="M270.91 68.92C271.09 70.01 270.95 71.13 270.5 72.13C270.05 73.14 269.31 73.98 268.37 74.57C267.44 75.15 266.35 75.45 265.25 75.42C264.15 75.39 263.09 75.03 262.19 74.39C261.29 73.75 260.6 72.86 260.21 71.83C259.82 70.8 259.74 69.68 259.99 68.61C260.23 67.53 260.79 66.56 261.59 65.8C262.4 65.04 263.4 64.54 264.49 64.36C265.95 64.12 267.44 64.46 268.64 65.31C269.85 66.17 270.66 67.47 270.91 68.92Z" fill="#32292A" fill-opacity="1.000000" fill-rule="nonzero"/>
	<path id="Vector" d="M319.76 192.98L0 192.98" stroke="#281F27" stroke-opacity="1.000000" stroke-width="0.760000"/>
</svg>
