<svg width="17.376465" height="12.967285" viewBox="0 0 17.3765 12.9673" fill="none" xmlns="http://www.w3.org/2000/svg" xmlns:xlink="http://www.w3.org/1999/xlink">
	<desc>
			Created with Pixso.
	</desc>
	<defs>
		<linearGradient x1="8.121367" y1="-0.987182" x2="6.162275" y2="15.809209" id="paint_linear_1_2795_0" gradientUnits="userSpaceOnUse">
			<stop stop-color="#FD749B"/>
			<stop offset="1.000000" stop-color="#281AC8"/>
		</linearGradient>
		<linearGradient x1="10.640900" y1="2.261379" x2="8.681801" y2="17.938009" id="paint_linear_1_2796_0" gradientUnits="userSpaceOnUse">
			<stop stop-color="#FD749B"/>
			<stop offset="1.000000" stop-color="#281AC8"/>
		</linearGradient>
		<linearGradient x1="8.121365" y1="2.862123" x2="6.162273" y2="4.639902" id="paint_linear_1_2797_0" gradientUnits="userSpaceOnUse">
			<stop stop-color="#FD749B"/>
			<stop offset="1.000000" stop-color="#281AC8"/>
		</linearGradient>
		<linearGradient x1="4.058808" y1="7.271303" x2="3.791660" y2="9.049081" id="paint_linear_1_2798_0" gradientUnits="userSpaceOnUse">
			<stop stop-color="#FD749B"/>
			<stop offset="1.000000" stop-color="#281AC8"/>
		</linearGradient>
		<linearGradient x1="10.105649" y1="7.775136" x2="8.327871" y2="7.686089" id="paint_linear_1_2799_0" gradientUnits="userSpaceOnUse">
			<stop stop-color="#FD749B"/>
			<stop offset="1.000000" stop-color="#281AC8"/>
		</linearGradient>
		<linearGradient x1="11.994809" y1="7.775136" x2="10.217031" y2="7.686089" id="paint_linear_1_2800_0" gradientUnits="userSpaceOnUse">
			<stop stop-color="#FD749B"/>
			<stop offset="1.000000" stop-color="#281AC8"/>
		</linearGradient>
	</defs>
	<path d="M13.09 0.5C13.79 0.5 14.35 1.06 14.35 1.75L14.35 8.68C14.35 9.38 13.79 9.94 13.09 9.94L1.75 9.94C1.06 9.94 0.5 9.38 0.5 8.68L0.5 1.75C0.5 1.06 1.06 0.5 1.75 0.5L13.09 0.5Z" stroke="url(#paint_linear_1_2795_0)" stroke-opacity="1.000000" stroke-width="1.000000" stroke-linejoin="round"/>
	<path d="M14.35 3.64L15.61 3.64C16.3 3.64 16.87 4.21 16.87 4.9L16.87 11.2C16.87 11.9 16.3 12.46 15.61 12.46L4.27 12.46C3.58 12.46 3.01 11.9 3.01 11.2L3.01 9.94" stroke="url(#paint_linear_1_2796_0)" stroke-opacity="1.000000" stroke-width="1.000000" stroke-linejoin="round" stroke-linecap="round"/>
	<path d="M0.5 3.01L14.35 3.01" stroke="url(#paint_linear_1_2797_0)" stroke-opacity="1.000000" stroke-width="1.000000" stroke-linejoin="round" stroke-linecap="round"/>
	<path d="M3.01 7.42L4.9 7.42" stroke="url(#paint_linear_1_2798_0)" stroke-opacity="1.000000" stroke-width="1.000000" stroke-linejoin="round" stroke-linecap="round"/>
	<path d="M9.94 7.42L9.94 8.05" stroke="url(#paint_linear_1_2799_0)" stroke-opacity="1.000000" stroke-width="1.000000" stroke-linejoin="round" stroke-linecap="round"/>
	<path d="M11.83 7.42L11.83 8.05" stroke="url(#paint_linear_1_2800_0)" stroke-opacity="1.000000" stroke-width="1.000000" stroke-linejoin="round" stroke-linecap="round"/>
</svg>
