<svg width="36.000000" height="36.000000" viewBox="0 0 36 36" fill="none" xmlns="http://www.w3.org/2000/svg" xmlns:xlink="http://www.w3.org/1999/xlink">
	<desc>
			Created with Pixso.
	</desc>
	<defs>
		<linearGradient x1="6.953804" y1="-5.509287" x2="0.539398" y2="56.713196" id="paint_linear_1_3262_0" gradientUnits="userSpaceOnUse">
			<stop stop-color="#FD749B"/>
			<stop offset="1.000000" stop-color="#281AC8"/>
		</linearGradient>
		<linearGradient x1="3.426559" y1="8.123768" x2="11.178560" y2="35.932896" id="paint_linear_1_3263_0" gradientUnits="userSpaceOnUse">
			<stop stop-color="#FD749B"/>
			<stop offset="1.000000" stop-color="#281AC8"/>
		</linearGradient>
		<linearGradient x1="3.426559" y1="8.123768" x2="11.178560" y2="35.932896" id="paint_linear_1_3263_1" gradientUnits="userSpaceOnUse">
			<stop stop-color="#FD749B"/>
			<stop offset="1.000000" stop-color="#281AC8"/>
		</linearGradient>
	</defs>
	<mask id="mask1_3259" mask-type="alpha" maskUnits="userSpaceOnUse" x="0.000000" y="0.000000" width="36.000000" height="36.000000">
		<circle id="Ellipse 3" cx="18.000000" cy="18.000000" r="18.000000" fill="#C4C4C4" fill-opacity="1.000000"/>
	</mask>
	<g mask="url(#mask1_3259)">
		<path id="CoinBase" d="M75.67 16.09C75.23 16.09 74.85 15.94 74.55 15.63C74.25 15.33 74.09 14.96 74.09 14.52C74.09 14.09 74.25 13.72 74.55 13.41C74.85 13.11 75.23 12.96 75.67 12.96C76.09 12.96 76.45 13.11 76.73 13.41Q76.95 13.63 77.06 13.88Q77.19 14.18 77.19 14.52Q77.19 14.87 77.06 15.16Q76.95 15.42 76.73 15.63C76.45 15.94 76.09 16.09 75.67 16.09ZM37.74 23.36Q37.74 21.23 38.54 19.45L38.54 19.45Q38.71 19.09 38.9 18.74Q39.59 17.52 40.58 16.61Q41.26 15.98 42.08 15.51Q42.7 15.15 43.37 14.9Q44.87 14.35 46.58 14.35Q49.08 14.35 51.03 15.38L51.03 15.38Q51.34 15.55 51.63 15.74C53.07 16.66 54.12 17.98 54.78 19.68L52.01 19.68Q51.5 18.57 50.66 17.81Q50.3 17.49 49.88 17.23Q48.51 16.37 46.58 16.37Q45.09 16.37 43.85 16.92L43.85 16.92Q43.54 17.05 43.25 17.23Q42.77 17.51 42.35 17.87Q41.5 18.6 40.94 19.68Q40.1 21.24 40.1 23.36Q40.1 25.46 40.94 27.05C41.5 28.09 42.27 28.9 43.25 29.47Q43.54 29.64 43.85 29.78Q45.09 30.33 46.58 30.33Q48.51 30.33 49.88 29.5C50.81 28.93 51.52 28.11 52.01 27.05L54.78 27.05Q54.14 28.68 53.02 29.83L53.02 29.83Q52.4 30.47 51.63 30.96C50.19 31.87 48.51 32.33 46.58 32.33Q44.8 32.33 43.25 31.74L43.25 31.74Q42.65 31.51 42.08 31.19Q41.19 30.68 40.47 29.99Q39.56 29.12 38.9 27.98Q38.71 27.63 38.54 27.27L38.54 27.27Q37.74 25.5 37.74 23.36ZM105.84 23.11C106.49 23.21 107.07 23.47 107.6 23.89C108.14 24.31 108.56 24.83 108.87 25.46C109.19 26.08 109.35 26.75 109.35 27.45C109.35 28.35 109.12 29.15 108.66 29.88C108.2 30.58 107.54 31.15 106.66 31.57C105.79 31.97 104.77 32.18 103.58 32.18L96.98 32.18L96.98 14.57L103.33 14.57C104.53 14.57 105.55 14.78 106.4 15.18C107.25 15.57 107.88 16.1 108.31 16.77C108.73 17.44 108.94 18.2 108.94 19.04C108.94 20.09 108.65 20.95 108.08 21.64C107.52 22.32 106.77 22.81 105.84 23.11ZM99.29 22.18L103.17 22.18C104.26 22.18 105.1 21.92 105.69 21.42Q105.97 21.18 106.16 20.89Q106.58 20.24 106.58 19.32Q106.58 18.4 106.16 17.75Q105.97 17.46 105.69 17.23C105.1 16.72 104.24 16.47 103.12 16.47L99.29 16.47L99.29 22.18ZM87.51 18.08Q89.39 18.08 90.75 18.93Q91.22 19.23 91.62 19.62C92.67 20.63 93.2 22.1 93.2 24.02L93.2 32.18L90.91 32.18L90.91 24.35C90.91 22.97 90.57 21.91 89.87 21.19C89.18 20.45 88.23 20.08 87.03 20.08C85.81 20.08 84.83 20.46 84.1 21.22C83.39 21.97 83.04 23.08 83.04 24.52L83.04 32.18L80.73 32.18L80.73 18.34L83.04 18.34L83.04 20.31C83.49 19.6 84.11 19.05 84.89 18.66C85.69 18.28 86.56 18.08 87.51 18.08ZM64.3 32.4C62.99 32.4 61.81 32.11 60.74 31.52C59.69 30.93 58.86 30.1 58.25 29.02Q57.36 27.38 57.36 25.23C57.36 23.82 57.66 22.57 58.27 21.49Q58.87 20.45 59.73 19.73Q60.23 19.31 60.81 18.99Q61.11 18.83 61.42 18.7L61.42 18.7Q62.78 18.11 64.4 18.11C65.72 18.11 66.91 18.4 67.98 18.99C69.05 19.57 69.88 20.39 70.49 21.47Q70.52 21.5 70.54 21.54Q71.43 23.13 71.43 25.23Q71.43 27.19 70.63 28.73L70.63 28.73Q70.55 28.88 70.47 29.02C69.84 30.1 68.99 30.93 67.9 31.52C66.82 32.11 65.62 32.4 64.3 32.4ZM111.69 25.21C111.69 23.79 111.98 22.55 112.56 21.49Q113.14 20.4 114.01 19.64L114.01 19.64Q114.43 19.28 114.92 18.99Q115.39 18.72 115.9 18.53Q117.02 18.11 118.3 18.11C119.52 18.11 120.58 18.37 121.47 18.89C122.37 19.41 123.04 20.07 123.48 20.86L123.48 18.34L125.82 18.34L125.82 32.18L123.48 32.18L123.48 29.6C123.02 30.41 122.34 31.08 121.42 31.62C120.52 32.14 119.47 32.4 118.27 32.4C117.04 32.4 115.92 32.1 114.92 31.49Q114.46 31.22 114.06 30.87Q113.16 30.08 112.56 28.94C111.98 27.85 111.69 26.6 111.69 25.21ZM134.65 32.4C133.59 32.4 132.63 32.23 131.78 31.87C130.94 31.5 130.27 31 129.78 30.36C129.28 29.7 129.01 28.95 128.96 28.11L131.35 28.11C131.42 28.8 131.74 29.36 132.32 29.8C132.91 30.24 133.68 30.46 134.63 30.46C135.51 30.46 136.2 30.26 136.71 29.88C137.22 29.49 137.47 29 137.47 28.41C137.47 27.81 137.2 27.36 136.66 27.07C136.12 26.77 135.28 26.48 134.14 26.19C133.11 25.92 132.27 25.65 131.6 25.38C130.96 25.1 130.4 24.68 129.93 24.14C129.47 23.59 129.24 22.87 129.24 21.97C129.24 21.27 129.45 20.62 129.88 20.03C130.3 19.44 130.9 18.98 131.68 18.64C132.46 18.29 133.35 18.11 134.35 18.11C135.89 18.11 137.13 18.5 138.08 19.27C139.03 20.05 139.54 21.11 139.61 22.45L137.29 22.45C137.24 21.73 136.95 21.15 136.41 20.71C135.88 20.27 135.17 20.05 134.27 20.05C133.44 20.05 132.78 20.23 132.29 20.58C131.8 20.94 131.55 21.4 131.55 21.97C131.55 22.43 131.7 22.81 131.99 23.11C132.29 23.4 132.66 23.63 133.1 23.82C133.56 23.98 134.19 24.18 134.98 24.4C135.98 24.67 136.8 24.94 137.42 25.21C138.05 25.46 138.58 25.85 139.02 26.37C139.48 26.89 139.72 27.57 139.73 28.41C139.73 29.17 139.52 29.85 139.1 30.46C138.67 31.06 138.07 31.54 137.29 31.9C136.53 32.23 135.65 32.4 134.65 32.4ZM155.7 24.73C155.7 25.16 155.67 25.63 155.62 26.11L144.5 26.11C144.58 27.48 145.05 28.55 145.89 29.32C146.76 30.08 147.8 30.46 149.02 30.46C150.02 30.46 150.85 30.23 151.51 29.78C152.19 29.3 152.66 28.68 152.93 27.91L155.42 27.91C155.05 29.24 154.3 30.32 153.18 31.16C152.07 31.99 150.68 32.4 149.02 32.4C147.7 32.4 146.51 32.11 145.46 31.52C144.43 30.93 143.62 30.1 143.02 29.02C142.43 27.92 142.13 26.66 142.13 25.23Q142.13 23.08 143 21.47C143.57 20.39 144.38 19.57 145.41 18.99C146.46 18.4 147.66 18.11 149.02 18.11Q150.92 18.11 152.39 18.9Q152.46 18.93 152.52 18.97Q153.37 19.44 154 20.12Q154.5 20.67 154.86 21.34C155.42 22.33 155.7 23.46 155.7 24.73ZM76.79 18.34L76.79 32.18L74.47 32.18L74.47 18.34L76.79 18.34ZM153.31 24.25C153.31 23.37 153.12 22.62 152.73 22C152.34 21.36 151.8 20.88 151.13 20.56C150.47 20.22 149.73 20.05 148.92 20.05C147.75 20.05 146.75 20.42 145.92 21.16C145.11 21.91 144.64 22.93 144.52 24.25L153.31 24.25ZM64.3 30.38C65.13 30.38 65.9 30.19 66.63 29.8Q66.91 29.65 67.16 29.47Q67.89 28.92 68.39 28.06C68.84 27.28 69.07 26.34 69.07 25.23C69.07 24.12 68.85 23.18 68.41 22.4C67.97 21.63 67.39 21.06 66.68 20.69Q66.26 20.45 65.8 20.31Q65.12 20.1 64.37 20.1C63.52 20.1 62.75 20.3 62.03 20.69C61.34 21.06 60.78 21.63 60.36 22.4C59.93 23.18 59.72 24.12 59.72 25.23C59.72 26.36 59.93 27.31 60.33 28.08Q60.86 29.05 61.66 29.61L61.66 29.61Q61.83 29.73 62.01 29.83C62.7 30.2 63.47 30.38 64.3 30.38ZM123.48 25.23C123.48 24.19 123.27 23.28 122.85 22.5C122.42 21.73 121.85 21.14 121.12 20.74C120.41 20.31 119.62 20.1 118.76 20.1C117.89 20.1 117.1 20.31 116.39 20.71C115.68 21.11 115.11 21.7 114.69 22.48C114.27 23.25 114.06 24.16 114.06 25.21C114.06 26.27 114.27 27.19 114.69 27.98C115.11 28.76 115.68 29.36 116.39 29.78C117.1 30.18 117.89 30.38 118.76 30.38C119.62 30.38 120.41 30.18 121.12 29.78C121.85 29.36 122.42 28.76 122.85 27.98C123.27 27.19 123.48 26.27 123.48 25.23ZM103.38 30.28C104.53 30.28 105.43 30.01 106.07 29.47C106.71 28.93 107.04 28.19 107.04 27.23C107.04 26.25 106.7 25.48 106.02 24.93C105.34 24.36 104.44 24.07 103.3 24.07L99.29 24.07L99.29 30.28L103.38 30.28Z" fill="#5C5C5C" fill-opacity="1.000000" fill-rule="evenodd"/>
		<path id="Path-18_5_" d="M23 35C25.45 35 27.37 32.78 27.37 30.21C27.37 27.63 25.45 25.42 23 25.42C22.13 25.42 21.26 25.42 20.39 25.42C23.88 17.5 22.13 0 6.43 0C-4.05 0 -9.28 6.44 -9.28 19.52L-11.02 19.52C-14.86 19.52 -18 23.02 -18 27.26C-18 31.5 -14.86 35 -11.02 35L-2.3 35L11.66 35L23 35Z" stroke="url(#paint_linear_1_3262_0)" stroke-opacity="1.000000" stroke-width="2.000000" stroke-linejoin="round"/>
		<path id="bitcoin 1" d="M8.27 17.13C8.95 16.27 9.2 15.1 8.83 13.99C8.31 12.44 6.76 11.53 5.18 11.72L4.83 10.69C4.77 10.52 4.58 10.42 4.4 10.48C4.22 10.54 4.12 10.74 4.18 10.91L4.5 11.87C4.5 11.88 4.5 11.88 4.5 11.88L3.18 12.32L2.86 11.35C2.8 11.18 2.61 11.08 2.43 11.14C2.25 11.2 2.15 11.39 2.21 11.57L2.53 12.53L1.02 13.04L1.02 13.04L-0.4 13.51C-0.58 13.57 -0.68 13.76 -0.62 13.94C-0.56 14.12 -0.36 14.21 -0.18 14.15L0.79 13.83L4.65 25.36L3.67 25.69C3.49 25.75 3.39 25.94 3.45 26.12C3.51 26.3 3.7 26.39 3.88 26.33L6.81 25.35L7.13 26.31C7.19 26.49 7.39 26.58 7.57 26.52C7.75 26.46 7.85 26.27 7.79 26.09L7.47 25.13L8.79 24.69L9.11 25.65C9.17 25.83 9.36 25.93 9.54 25.87C9.72 25.81 9.82 25.61 9.76 25.44L9.44 24.48L9.76 24.37C11.74 23.71 12.82 21.59 12.17 19.64C11.61 17.98 9.98 16.98 8.27 17.13ZM1.45 13.61L4.71 12.52C5.41 12.29 6.15 12.33 6.81 12.65C7.46 12.97 7.95 13.52 8.18 14.21C8.41 14.89 8.35 15.63 8.02 16.28C7.69 16.91 7.15 17.39 6.47 17.63L3.16 18.74L1.45 13.61ZM11.34 22.19C10.96 22.92 10.33 23.47 9.54 23.73L5.3 25.14L3.37 19.38L6.64 18.29C6.65 18.28 6.67 18.28 6.68 18.27L7.62 17.96C8.4 17.7 9.24 17.75 9.97 18.11C10.71 18.47 11.26 19.09 11.52 19.86C11.77 20.63 11.71 21.46 11.34 22.19Z" fill="url(#paint_linear_1_3263_0)" fill-opacity="1.000000" fill-rule="nonzero"/>
		<path id="bitcoin 1" d="M9.5 14.8Q9.46 14.31 9.3 13.83Q9.18 13.47 9 13.15Q8.85 12.88 8.65 12.64Q8.47 12.42 8.27 12.23Q7.99 11.98 7.67 11.78Q7.4 11.61 7.12 11.5Q6.8 11.36 6.45 11.29Q6.13 11.22 5.8 11.2Q5.67 11.19 5.53 11.2L5.31 10.54Q5.28 10.45 5.24 10.38Q5.19 10.31 5.14 10.25Q5.09 10.19 5.03 10.14Q4.96 10.09 4.88 10.05Q4.81 10.02 4.73 9.99Q4.65 9.97 4.57 9.97Q4.49 9.96 4.41 9.97Q4.33 9.98 4.24 10.01Q4.16 10.04 4.08 10.08Q4.01 10.12 3.95 10.17Q3.89 10.23 3.84 10.29Q3.79 10.35 3.76 10.43Q3.72 10.5 3.69 10.59Q3.67 10.66 3.67 10.74Q3.66 10.82 3.67 10.9Q3.68 10.99 3.71 11.07L3.87 11.56L3.5 11.68L3.34 11.19Q3.31 11.11 3.27 11.04Q3.22 10.97 3.17 10.9Q3.12 10.85 3.06 10.8Q2.99 10.75 2.91 10.71Q2.84 10.67 2.76 10.65Q2.68 10.63 2.6 10.63Q2.52 10.62 2.44 10.63Q2.36 10.64 2.27 10.67Q2.19 10.7 2.11 10.74Q2.04 10.78 1.98 10.83Q1.92 10.89 1.87 10.95Q1.82 11.01 1.78 11.09Q1.74 11.16 1.72 11.25Q1.7 11.32 1.7 11.4Q1.69 11.48 1.7 11.56Q1.71 11.65 1.74 11.73L1.9 12.22L1.34 12.4L1.34 12.4L-0.56 13.04Q-0.64 13.07 -0.72 13.11Q-0.79 13.15 -0.85 13.2Q-0.91 13.26 -0.96 13.32Q-1.01 13.38 -1.04 13.46Q-1.08 13.53 -1.11 13.62Q-1.13 13.69 -1.13 13.77Q-1.14 13.85 -1.13 13.93Q-1.12 14.02 -1.09 14.1Q-1.06 14.18 -1.02 14.26Q-0.98 14.33 -0.92 14.39Q-0.87 14.45 -0.81 14.49Q-0.74 14.55 -0.67 14.58Q-0.59 14.62 -0.52 14.64Q-0.44 14.66 -0.36 14.67Q-0.28 14.67 -0.2 14.67Q-0.11 14.66 -0.03 14.63L0.48 14.46L4.02 25.05L3.51 25.22Q3.43 25.24 3.35 25.29Q3.28 25.33 3.22 25.38Q3.16 25.43 3.11 25.5Q3.06 25.56 3.02 25.63Q2.99 25.71 2.96 25.79Q2.94 25.87 2.94 25.94Q2.93 26.03 2.94 26.11Q2.95 26.19 2.98 26.28Q3 26.36 3.05 26.44Q3.09 26.51 3.14 26.57Q3.2 26.63 3.26 26.67Q3.32 26.73 3.4 26.76Q3.48 26.8 3.55 26.82Q3.63 26.84 3.71 26.85Q3.79 26.85 3.87 26.84Q3.96 26.83 4.04 26.81L6.5 25.98L6.66 26.47Q6.69 26.56 6.73 26.63Q6.77 26.7 6.83 26.76Q6.88 26.82 6.94 26.87Q7.01 26.92 7.09 26.96Q7.16 26.99 7.24 27.01Q7.31 27.03 7.4 27.04Q7.48 27.05 7.55 27.04Q7.64 27.03 7.73 27Q7.81 26.97 7.89 26.93Q7.95 26.89 8.02 26.83Q8.08 26.78 8.13 26.72Q8.18 26.65 8.21 26.58Q8.25 26.5 8.28 26.42Q8.3 26.35 8.3 26.27Q8.31 26.19 8.3 26.11Q8.29 26.02 8.26 25.94L8.1 25.45L8.47 25.33L8.63 25.81Q8.66 25.9 8.7 25.97Q8.75 26.04 8.8 26.1Q8.85 26.16 8.91 26.21Q8.98 26.26 9.06 26.3Q9.13 26.33 9.21 26.35Q9.29 26.38 9.37 26.38Q9.45 26.39 9.53 26.38Q9.61 26.37 9.7 26.34Q9.78 26.31 9.86 26.27Q9.93 26.23 9.99 26.18Q10.05 26.12 10.1 26.06Q10.15 25.99 10.18 25.92Q10.22 25.84 10.25 25.76Q10.27 25.69 10.27 25.61Q10.28 25.53 10.27 25.45Q10.26 25.36 10.23 25.28L10.07 24.79Q10.45 24.65 10.79 24.44Q11.11 24.25 11.39 24Q11.71 23.72 11.97 23.39Q12.21 23.08 12.4 22.72Q12.61 22.3 12.72 21.85Q12.81 21.51 12.84 21.15Q12.88 20.75 12.83 20.36Q12.79 19.92 12.64 19.49Q12.51 19.1 12.32 18.75Q12.16 18.47 11.96 18.22Q11.77 17.98 11.56 17.78Q11.26 17.5 10.92 17.29Q10.65 17.11 10.35 16.98Q10.01 16.83 9.64 16.74Q9.4 16.68 9.15 16.65Q9.17 16.61 9.19 16.57Q9.36 16.18 9.44 15.75Q9.53 15.27 9.5 14.8ZM8.89 17.13C8.69 17.11 8.48 17.12 8.27 17.13C8.4 16.97 8.51 16.8 8.61 16.62C9.02 15.83 9.13 14.89 8.83 13.99C8.31 12.44 6.76 11.53 5.18 11.72L4.83 10.69C4.77 10.52 4.58 10.42 4.4 10.48C4.22 10.54 4.12 10.74 4.18 10.91L4.5 11.87L3.18 12.32L2.86 11.35C2.8 11.18 2.61 11.08 2.43 11.14C2.25 11.2 2.15 11.39 2.21 11.57L2.53 12.53L1.02 13.04L1.02 13.04L-0.4 13.51C-0.58 13.57 -0.68 13.76 -0.62 13.94C-0.56 14.12 -0.36 14.21 -0.18 14.15L0.79 13.83L0.95 14.3L4.49 24.89L4.65 25.36L3.67 25.69C3.49 25.75 3.39 25.94 3.45 26.12C3.51 26.3 3.7 26.39 3.88 26.33L6.81 25.35L7.13 26.31C7.19 26.49 7.39 26.58 7.57 26.52C7.75 26.46 7.85 26.27 7.79 26.09L7.47 25.13L8.79 24.69L9.11 25.65C9.17 25.83 9.36 25.93 9.54 25.87C9.72 25.81 9.82 25.61 9.76 25.44L9.44 24.48L9.76 24.37C11.74 23.71 12.82 21.59 12.17 19.64C11.68 18.18 10.36 17.23 8.89 17.13ZM2.08 13.92L4.87 12.99Q5.14 12.9 5.42 12.88Q5.58 12.87 5.74 12.88Q5.94 12.89 6.13 12.94Q6.36 12.99 6.59 13.1Q6.85 13.23 7.07 13.42Q7.18 13.51 7.28 13.62Q7.39 13.76 7.49 13.91Q7.62 14.12 7.7 14.37Q7.79 14.62 7.81 14.87Q7.82 15.04 7.81 15.22Q7.8 15.37 7.77 15.51Q7.71 15.79 7.57 16.05Q7.46 16.27 7.3 16.46Q7.19 16.6 7.05 16.73Q6.93 16.83 6.8 16.91Q6.57 17.06 6.3 17.16L3.48 18.1L2.08 13.92ZM1.92 13.45L4.71 12.52C5.41 12.29 6.15 12.33 6.81 12.65C7.46 12.97 7.95 13.52 8.18 14.21C8.41 14.89 8.35 15.63 8.02 16.28C7.69 16.91 7.15 17.39 6.47 17.63L3.16 18.74L1.45 13.61L1.92 13.45ZM9.97 22.97Q9.7 23.15 9.38 23.25L5.62 24.51L4.01 19.69L6.8 18.76Q6.82 18.75 6.85 18.74L7.77 18.43Q8.08 18.33 8.4 18.3Q8.59 18.29 8.78 18.3Q9.01 18.31 9.22 18.37Q9.5 18.43 9.76 18.56Q10.06 18.71 10.31 18.92Q10.44 19.03 10.55 19.16Q10.69 19.32 10.79 19.49Q10.95 19.74 11.04 20.02Q11.14 20.3 11.16 20.59Q11.18 20.8 11.16 21Q11.15 21.17 11.12 21.34Q11.05 21.66 10.89 21.96Q10.76 22.22 10.58 22.43Q10.44 22.61 10.27 22.75Q10.13 22.87 9.97 22.97ZM6.68 18.27L7.62 17.96C8.4 17.7 9.24 17.75 9.97 18.11C10.71 18.47 11.26 19.09 11.52 19.86C11.77 20.63 11.71 21.46 11.34 22.19C10.96 22.92 10.33 23.47 9.54 23.73L5.3 25.14L3.37 19.38L6.64 18.29C6.65 18.28 6.67 18.28 6.68 18.27Z" fill="url(#paint_linear_1_3263_1)" fill-opacity="1.000000" fill-rule="evenodd"/>
	</g>
</svg>
