<svg width="15.000000" height="19.000000" viewBox="0 0 15 19" fill="none" xmlns="http://www.w3.org/2000/svg" xmlns:xlink="http://www.w3.org/1999/xlink">
	<desc>
			Created with Pixso.
	</desc>
	<defs/>
	<rect id="Delete-Icon" width="15.000000" height="19.000000" fill="#FFFFFF" fill-opacity="0"/>
	<rect id="Rectangle 2" y="2.850098" rx="0.950000" width="15.000000" height="1.900000" fill="#D8D8D8" fill-opacity="1.000000"/>
	<rect id="Rectangle 2" x="0.500000" y="3.350098" rx="0.450000" width="14.000000" height="0.900000" stroke="#979797" stroke-opacity="1.000000" stroke-width="1.000000"/>
	<path id="Rectangle 2 Copy 2" d="M4.52 0L10.47 0C11.02 0 11.47 0.44 11.47 1L11.47 1.89L3.52 1.89L3.52 1C3.52 0.44 3.97 0 4.52 0Z" fill="#D8D8D8" fill-opacity="1.000000" fill-rule="evenodd"/>
	<path id="Rectangle 2 Copy 2" d="M10.47 0C11.02 0 11.47 0.44 11.47 1L11.47 1.89L3.52 1.89L3.52 1C3.52 0.44 3.97 0 4.52 0L10.47 0Z" fill="#979797" fill-opacity="1.000000" fill-rule="evenodd"/>
	<rect id="Rectangle" x="1.764648" y="2.850098" rx="1.000000" width="11.470589" height="16.150000" fill="#D8D8D8" fill-opacity="0"/>
	<rect id="Rectangle" x="2.764648" y="3.850098" rx="1.000000" width="9.470589" height="14.150000" stroke="#979797" stroke-opacity="1.000000" stroke-width="2.000000"/>
	<rect id="Rectangle 39" x="2.646973" y="14.250000" width="9.705883" height="2.850000" fill="#979797" fill-opacity="1.000000"/>
	<rect id="Rectangle 39" x="2.646973" y="14.250000" width="9.705883" height="2.850000" stroke="#979797" stroke-opacity="0" stroke-width="0.000000"/>
</svg>
