<svg width="29.164062" height="22.955078" viewBox="0 0 29.1641 22.9551" fill="none" xmlns="http://www.w3.org/2000/svg" xmlns:xlink="http://www.w3.org/1999/xlink">
	<defs>
		<linearGradient x1="15.940296" y1="-2.298510" x2="12.099876" y2="34.955223" id="paint_linear_1_3280_0" gradientUnits="userSpaceOnUse">
			<stop stop-color="#FD749B"/>
			<stop offset="1.000000" stop-color="#281AC8"/>
		</linearGradient>
		<linearGradient x1="13.828484" y1="5.864046" x2="18.469765" y2="22.513872" id="paint_linear_1_3281_0" gradientUnits="userSpaceOnUse">
			<stop stop-color="#FD749B"/>
			<stop offset="1.000000" stop-color="#281AC8"/>
		</linearGradient>
		<linearGradient x1="13.828484" y1="5.864046" x2="18.469765" y2="22.513872" id="paint_linear_1_3281_1" gradientUnits="userSpaceOnUse">
			<stop stop-color="#FD749B"/>
			<stop offset="1.000000" stop-color="#281AC8"/>
		</linearGradient>
	</defs>
	<path id="bt1" d="M25.55 21.95C27.01 21.95 28.16 20.63 28.16 19.08C28.16 17.54 27.01 16.22 25.55 16.22C25.02 16.22 24.5 16.22 23.98 16.22C26.07 11.47 25.02 1 15.62 1C9.35 1 6.22 4.86 6.22 12.69L5.17 12.69C2.88 12.69 1 14.78 1 17.32C1 19.85 2.88 21.95 5.17 21.95L10.4 21.95L18.76 21.95L25.55 21.95Z" stroke="url(#paint_linear_1_3280_0)" stroke-opacity="1.000000" stroke-width="2.000000" stroke-linejoin="round"/>
	<path id="bt2" d="M16.73 11.26C17.14 10.74 17.28 10.04 17.06 9.38C16.75 8.45 15.82 7.9 14.87 8.02L14.67 7.4C14.63 7.3 14.52 7.24 14.41 7.27C14.3 7.31 14.24 7.43 14.28 7.53L14.47 8.11C14.47 8.11 14.47 8.11 14.47 8.11L13.68 8.37L13.49 7.8C13.45 7.69 13.34 7.63 13.23 7.67C13.12 7.7 13.06 7.82 13.1 7.93L13.29 8.5L12.39 8.8L12.39 8.8L11.54 9.09C11.43 9.12 11.37 9.24 11.4 9.35C11.44 9.45 11.56 9.51 11.66 9.47L12.25 9.28L14.56 16.18L13.97 16.38C13.86 16.41 13.81 16.53 13.84 16.64C13.88 16.74 13.99 16.8 14.1 16.76L15.85 16.18L16.05 16.75C16.08 16.86 16.2 16.91 16.31 16.88C16.41 16.84 16.47 16.73 16.44 16.62L16.25 16.05L17.03 15.78L17.23 16.36C17.26 16.46 17.38 16.52 17.49 16.48C17.59 16.45 17.65 16.33 17.62 16.23L17.43 15.65L17.62 15.59C18.8 15.19 19.45 13.93 19.06 12.76C18.73 11.76 17.75 11.16 16.73 11.26ZM12.64 9.15L14.6 8.49C15.01 8.35 15.46 8.38 15.85 8.57C16.24 8.76 16.53 9.1 16.67 9.51C16.81 9.92 16.77 10.36 16.58 10.74C16.38 11.12 16.05 11.41 15.65 11.55L13.67 12.22L12.64 9.15ZM18.56 14.28C18.34 14.72 17.96 15.05 17.49 15.2L14.95 16.05L13.8 12.6L15.75 11.95C15.76 11.94 15.77 11.94 15.78 11.94L16.33 11.75C16.8 11.59 17.31 11.63 17.75 11.84C18.19 12.06 18.52 12.43 18.67 12.89C18.82 13.35 18.79 13.85 18.56 14.28Z" fill="url(#paint_linear_1_3281_0)" fill-opacity="1.000000" fill-rule="nonzero"/>
	<path id="bt3" d="M17.66 9.84Q17.64 9.53 17.54 9.22Q17.46 8.98 17.34 8.78Q17.24 8.6 17.11 8.44Q16.99 8.3 16.86 8.17Q16.68 8.01 16.47 7.88Q16.3 7.77 16.11 7.7Q15.9 7.61 15.68 7.56Q15.47 7.51 15.26 7.5Q15.24 7.5 15.23 7.5L15.14 7.24Q15.1 7.1 15.01 7Q14.92 6.9 14.79 6.84Q14.66 6.77 14.52 6.76Q14.39 6.75 14.25 6.8Q14.11 6.85 14.01 6.93Q13.91 7.02 13.85 7.15Q13.8 7.25 13.78 7.35Q13.7 7.28 13.61 7.23Q13.48 7.17 13.34 7.16Q13.21 7.15 13.07 7.19Q12.93 7.24 12.83 7.33Q12.73 7.42 12.66 7.54Q12.6 7.68 12.59 7.81Q12.58 7.95 12.62 8.08L12.66 8.19L11.38 8.61Q11.24 8.66 11.14 8.75Q11.04 8.83 10.97 8.96Q10.9 9.1 10.89 9.23Q10.88 9.37 10.93 9.5Q10.98 9.64 11.06 9.74Q11.15 9.85 11.29 9.91Q11.42 9.97 11.55 9.98Q11.68 9.99 11.82 9.95L11.93 9.91L13.93 15.87L13.81 15.9Q13.68 15.95 13.57 16.04Q13.47 16.13 13.41 16.25Q13.34 16.39 13.33 16.52Q13.32 16.66 13.37 16.79Q13.41 16.93 13.5 17.03Q13.59 17.14 13.72 17.2Q13.85 17.27 13.99 17.27Q14.12 17.28 14.26 17.24L15.54 16.81L15.57 16.91Q15.62 17.05 15.71 17.15Q15.8 17.25 15.93 17.32Q16.06 17.38 16.19 17.39Q16.33 17.4 16.46 17.35Q16.6 17.31 16.7 17.22Q16.81 17.13 16.87 17Q16.92 16.91 16.94 16.81Q17.01 16.88 17.11 16.92Q17.24 16.99 17.37 17Q17.51 17.01 17.64 16.96Q17.78 16.91 17.89 16.82Q17.99 16.74 18.05 16.61Q18.12 16.48 18.13 16.34Q18.14 16.21 18.09 16.07L18.05 15.95Q18.2 15.89 18.34 15.8Q18.54 15.68 18.73 15.52Q18.93 15.34 19.1 15.13Q19.26 14.92 19.37 14.69Q19.51 14.42 19.59 14.14Q19.64 13.91 19.66 13.68Q19.69 13.42 19.66 13.17Q19.63 12.88 19.53 12.6Q19.45 12.35 19.33 12.13Q19.22 11.95 19.09 11.78Q18.97 11.63 18.83 11.49Q18.64 11.32 18.42 11.18Q18.24 11.07 18.05 10.98Q17.83 10.88 17.6 10.83Q17.56 10.82 17.53 10.81Q17.59 10.64 17.62 10.46Q17.68 10.15 17.66 9.84ZM14.74 7.6L14.67 7.4C14.63 7.3 14.52 7.24 14.41 7.27C14.3 7.31 14.24 7.43 14.28 7.53L14.47 8.11L13.68 8.37L13.49 7.8C13.45 7.69 13.34 7.63 13.23 7.67C13.12 7.7 13.06 7.82 13.1 7.93L13.29 8.5L12.39 8.8L12.39 8.8L11.54 9.09C11.43 9.12 11.37 9.24 11.4 9.35C11.44 9.45 11.56 9.51 11.66 9.47L12.25 9.28L14.56 16.18L13.97 16.38C13.86 16.41 13.81 16.53 13.84 16.64C13.88 16.74 13.99 16.8 14.1 16.76L15.85 16.18L16.05 16.75C16.08 16.86 16.2 16.91 16.31 16.88C16.41 16.84 16.47 16.73 16.44 16.62L16.25 16.05L17.03 15.78L17.23 16.36C17.26 16.46 17.38 16.52 17.49 16.48C17.59 16.45 17.65 16.33 17.62 16.23L17.43 15.65L17.62 15.59C18.8 15.19 19.45 13.93 19.06 12.76C18.79 11.96 18.11 11.41 17.32 11.28C17.17 11.25 17.01 11.24 16.85 11.25C16.81 11.25 16.77 11.25 16.73 11.26C16.75 11.22 16.78 11.19 16.8 11.16C16.89 11.03 16.96 10.89 17.02 10.75C17.19 10.32 17.22 9.84 17.06 9.38C16.76 8.48 15.88 7.93 14.96 8.01C14.93 8.01 14.9 8.01 14.87 8.02L14.74 7.6ZM15.1 8.41C15.36 8.4 15.61 8.46 15.85 8.57C16.24 8.76 16.53 9.1 16.67 9.51C16.81 9.92 16.77 10.36 16.58 10.74C16.46 10.96 16.31 11.15 16.12 11.29C16.08 11.33 16.04 11.36 15.99 11.39C15.89 11.45 15.77 11.51 15.65 11.55L13.67 12.22L12.64 9.15L14.6 8.49C14.76 8.44 14.93 8.41 15.1 8.41ZM13.27 9.46L14.75 8.97Q14.9 8.92 15.04 8.91Q15.12 8.9 15.2 8.91Q15.3 8.91 15.39 8.94Q15.52 8.97 15.63 9.02Q15.77 9.09 15.88 9.19Q15.94 9.24 15.98 9.29Q16.04 9.35 16.08 9.43Q16.15 9.54 16.2 9.66Q16.24 9.79 16.25 9.92Q16.26 10.01 16.25 10.09Q16.25 10.16 16.23 10.23Q16.2 10.38 16.13 10.52Q16.03 10.71 15.88 10.85Q15.71 11 15.48 11.08L13.98 11.58L13.27 9.46ZM13.88 12.57L13.8 12.6L14.95 16.05L17.49 15.2C17.96 15.05 18.34 14.72 18.56 14.28C18.79 13.85 18.82 13.35 18.67 12.89C18.52 12.43 18.19 12.06 17.75 11.84C17.31 11.63 16.82 11.59 16.36 11.74C16.35 11.75 16.34 11.75 16.33 11.75L15.78 11.94C15.77 11.94 15.76 11.94 15.75 11.95L13.88 12.57ZM15.94 12.41Q15.92 12.42 15.91 12.42L14.43 12.92L15.26 15.42L17.33 14.73Q17.5 14.67 17.65 14.58Q17.72 14.53 17.79 14.47Q17.88 14.39 17.95 14.31Q18.05 14.19 18.12 14.06Q18.2 13.89 18.24 13.72Q18.25 13.64 18.26 13.56Q18.27 13.45 18.26 13.35Q18.25 13.2 18.2 13.05Q18.15 12.9 18.06 12.77Q18.01 12.68 17.94 12.6Q17.89 12.54 17.82 12.49Q17.69 12.37 17.53 12.29Q17.39 12.22 17.25 12.19Q17.13 12.16 17.02 12.16Q16.92 12.15 16.83 12.16Q16.66 12.17 16.49 12.22L15.94 12.41Z" fill="url(#paint_linear_1_3281_1)" fill-opacity="1.000000" fill-rule="evenodd"/>
</svg>
