<svg width="16.000000" height="11.000000" viewBox="0 0 16 11" fill="none" xmlns="http://www.w3.org/2000/svg" xmlns:xlink="http://www.w3.org/1999/xlink">
	<desc>
			Created with Pixso.
	</desc>
	<defs>
		<linearGradient x1="8.750004" y1="-1.074075" x2="6.629326" y2="16.703703" id="paint_linear_1_6000_0" gradientUnits="userSpaceOnUse">
			<stop stop-color="#FD749B"/>
			<stop offset="1.000000" stop-color="#281AC8"/>
		</linearGradient>
		<linearGradient x1="8.250000" y1="0.962962" x2="7.543112" y2="9.851852" id="paint_linear_1_6001_0" gradientUnits="userSpaceOnUse">
			<stop stop-color="#FD749B"/>
			<stop offset="1.000000" stop-color="#281AC8"/>
		</linearGradient>
	</defs>
	<path id="Oval-9" d="M15.5 5.5C15.5 5.25 10.75 0.5 8 0.5C5.25 0.5 0.5 5.37 0.5 5.5C0.5 5.62 5.25 10.5 8 10.5C10.75 10.5 15.5 5.75 15.5 5.5Z" stroke="url(#paint_linear_1_6000_0)" stroke-opacity="1.000000" stroke-width="1.000000" stroke-linejoin="round"/>
	<path id="Oval-10" d="M8 6.75C6.61 6.75 5.5 5.63 5.5 4.25C5.5 2.86 6.61 1.75 8 1.75C9.38 1.75 10.5 2.86 10.5 4.25C10.5 5.63 9.38 6.75 8 6.75Z" stroke="url(#paint_linear_1_6001_0)" stroke-opacity="1.000000" stroke-width="1.000000" stroke-linejoin="round"/>
</svg>
