<svg width="279.000000" height="176.407715" viewBox="0 0 279 176.408" fill="none" xmlns="http://www.w3.org/2000/svg" xmlns:xlink="http://www.w3.org/1999/xlink">
	<desc>
			Created with Pixso.
	</desc>
	<defs>
		<linearGradient x1="153.350128" y1="-23.214272" x2="114.188080" y2="281.869110" id="paint_linear_1_10262_0" gradientUnits="userSpaceOnUse">
			<stop stop-color="#FD749B"/>
			<stop offset="1.000000" stop-color="#281AC8"/>
		</linearGradient>
		<linearGradient x1="153.256775" y1="-26.306236" x2="114.358490" y2="282.093323" id="paint_linear_1_10264_0" gradientUnits="userSpaceOnUse">
			<stop stop-color="#FD749B"/>
			<stop offset="1.000000" stop-color="#281AC8"/>
		</linearGradient>
		<linearGradient x1="174.801208" y1="123.109192" x2="130.364929" y2="229.225159" id="paint_linear_1_10265_0" gradientUnits="userSpaceOnUse">
			<stop stop-color="#FD749B"/>
			<stop offset="1.000000" stop-color="#281AC8"/>
		</linearGradient>
		<linearGradient x1="6.677340" y1="124.944244" x2="21.518536" y2="132.405518" id="paint_linear_1_10269_0" gradientUnits="userSpaceOnUse">
			<stop stop-color="#FC58B3"/>
			<stop offset="1.000000" stop-color="#FEAE68"/>
		</linearGradient>
		<linearGradient x1="230.624451" y1="67.357147" x2="242.092651" y2="83.212364" id="paint_linear_1_10270_0" gradientUnits="userSpaceOnUse">
			<stop stop-color="#FC58B3"/>
			<stop offset="1.000000" stop-color="#FEAE68"/>
		</linearGradient>
		<linearGradient x1="251.424469" y1="148.618958" x2="264.646545" y2="155.524445" id="paint_linear_1_10271_0" gradientUnits="userSpaceOnUse">
			<stop stop-color="#FC58B3"/>
			<stop offset="1.000000" stop-color="#FEAE68"/>
		</linearGradient>
	</defs>
	<rect id="Rectangle 290" x="1.000000" y="3.798340" rx="10.000000" width="277.000000" height="171.609421" fill="url(#paint_linear_1_10262_0)" fill-opacity="1.000000"/>
	<rect id="Rectangle 290" x="0.500000" y="3.298340" rx="10.000000" width="278.000000" height="172.609421" stroke="#F0F0F0" stroke-opacity="1.000000" stroke-width="1.000000"/>
	<mask id="mask1_10264" mask-type="alpha" maskUnits="userSpaceOnUse" x="1.932617" y="1.000000" width="275.134766" height="173.474854">
		<rect id="Rectangle 290" x="1.932617" y="1.000000" rx="10.000000" width="275.134674" height="173.474747" fill="url(#paint_linear_1_10264_0)" fill-opacity="1.000000"/>
		<rect id="Rectangle 290" x="1.432617" y="0.500000" rx="10.000000" width="276.134674" height="174.474747" stroke="#F0F0F0" stroke-opacity="1.000000" stroke-width="1.000000"/>
	</mask>
	<g mask="url(#mask1_10264)">
		<g opacity="0.500000">
			<path id="Vector 2" d="M1.93 173.16C30.9 162 106.45 138.32 176.84 132.96C247.24 127.6 299.1 170.21 316.23 192.19L1.93 192.19L1.93 173.16Z" fill="url(#paint_linear_1_10265_0)" fill-opacity="1.000000" fill-rule="evenodd"/>
		</g>
	</g>
	<path id="Vector 2" d="M10.48 129.07Q10.98 128.45 11.85 127.92Q12.77 127.35 13.84 127.04Q15.08 126.68 16.31 126.73Q17.74 126.79 19.03 127.41Q20.03 127.88 20.74 127.93Q21.29 127.96 21.69 127.72Q22.11 127.46 22.5 126.84Q22.9 126.2 23.31 125.09Q23.63 124.19 24.16 123.47Q24.66 122.78 25.33 122.29Q25.96 121.82 26.7 121.55Q27.41 121.29 28.15 121.25Q28.89 121.21 29.59 121.37Q30.3 121.54 30.91 121.91Q31.55 122.3 32.01 122.86Q32.49 123.46 32.72 124.19L30.82 124.81Q30.58 124.04 29.88 123.62Q29.54 123.42 29.13 123.32Q28.71 123.22 28.27 123.25Q27.81 123.27 27.38 123.43Q26.92 123.6 26.52 123.89Q25.63 124.56 25.19 125.77Q24.71 127.08 24.2 127.9Q23.56 128.93 22.73 129.43Q21.79 130 20.61 129.92Q19.52 129.85 18.17 129.21Q17.25 128.77 16.23 128.73Q15.32 128.69 14.4 128.96Q13.59 129.19 12.9 129.62Q12.32 129.98 12.03 130.33L10.48 129.07ZM12.03 130.31L12.03 130.33C11.67 130.77 11.06 130.83 10.62 130.48C10.19 130.12 10.13 129.5 10.48 129.07L10.51 129.07L12.03 130.31ZM32.7 124.18L32.72 124.19C32.9 124.73 32.61 125.28 32.08 125.45C31.55 125.62 30.99 125.34 30.82 124.81L30.83 124.78L32.7 124.18Z" fill="url(#paint_linear_1_10269_0)" fill-opacity="1.000000" fill-rule="evenodd"/>
	<circle id="Ellipse 17" cx="242.092529" cy="69.550537" r="7.927609" fill="url(#paint_linear_1_10270_0)" fill-opacity="1.000000"/>
	<path id="Rectangle 290" d="M257.65 140.62L268.09 148.91L257.28 154.31L257.65 140.62Z" fill="url(#paint_linear_1_10271_0)" fill-opacity="1.000000" fill-rule="nonzero"/>
</svg>
