<svg width="71.000000" height="71.000000" viewBox="0 0 71 71" fill="none" xmlns="http://www.w3.org/2000/svg" xmlns:xlink="http://www.w3.org/1999/xlink">
	<desc>
			Created with Pixso.
	</desc>
	<defs>
		<linearGradient x1="39.000023" y1="-10.518524" x2="29.103500" y2="113.925919" id="paint_linear_1_7548_0" gradientUnits="userSpaceOnUse">
			<stop stop-color="#FD749B"/>
			<stop offset="1.000000" stop-color="#281AC8"/>
		</linearGradient>
		<linearGradient x1="39.000023" y1="-10.518524" x2="29.103500" y2="113.925919" id="paint_linear_1_7548_1" gradientUnits="userSpaceOnUse">
			<stop stop-color="#FD749B"/>
			<stop offset="1.000000" stop-color="#281AC8"/>
		</linearGradient>
		<linearGradient x1="38.036545" y1="-2.892794" x2="29.856766" y2="99.964348" id="paint_linear_1_7549_0" gradientUnits="userSpaceOnUse">
			<stop stop-color="#FD749B"/>
			<stop offset="1.000000" stop-color="#281AC8"/>
		</linearGradient>
		<linearGradient x1="37.928177" y1="3.568847" x2="31.061199" y2="89.918060" id="paint_linear_1_7550_0" gradientUnits="userSpaceOnUse">
			<stop stop-color="#FD749B"/>
			<stop offset="1.000000" stop-color="#281AC8"/>
		</linearGradient>
	</defs>
	<g opacity="0.500000" style="mix-blend-mode:normal">
		<path id="Outer" d="M35.5 70.5C54.83 70.5 70.5 54.83 70.5 35.5C70.5 16.16 54.83 0.5 35.5 0.5C16.17 0.5 0.5 16.16 0.5 35.5C0.5 54.83 16.17 70.5 35.5 70.5Z" fill="url(#paint_linear_1_7548_0)" fill-opacity="1.000000" fill-rule="evenodd"/>
		<path id="Outer" d="M70.5 35.5C70.5 16.16 54.83 0.5 35.5 0.5C16.17 0.5 0.5 16.16 0.5 35.5C0.5 54.83 16.17 70.5 35.5 70.5C54.83 70.5 70.5 54.83 70.5 35.5Z" stroke="url(#paint_linear_1_7548_1)" stroke-opacity="1.000000" stroke-width="1.000000"/>
	</g>
	<g opacity="0.800000" style="mix-blend-mode:normal">
		<path id="Inner" d="M35.14 64.07C51.12 64.07 64.07 51.11 64.07 35.14C64.07 19.16 51.12 6.21 35.14 6.21C19.16 6.21 6.21 19.16 6.21 35.14C6.21 51.11 19.16 64.07 35.14 64.07Z" fill="url(#paint_linear_1_7549_0)" fill-opacity="1.000000" fill-rule="evenodd"/>
	</g>
	<path id="Inner" d="M35.49 59.78C48.91 59.78 59.78 48.91 59.78 35.5C59.78 22.08 48.91 11.21 35.49 11.21C22.08 11.21 11.21 22.08 11.21 35.5C11.21 48.91 22.08 59.78 35.49 59.78Z" fill="url(#paint_linear_1_7550_0)" fill-opacity="1.000000" fill-rule="evenodd"/>
	<path id="Path" d="M42.64 34.63C42.51 34.4 42.32 34.21 42.09 34.08C42.09 34.07 42.09 34.07 42.09 34.07L30.56 27.16C30.56 27.16 30.56 27.15 30.56 27.15C29.78 26.69 28.77 26.95 28.3 27.73C28.15 27.98 28.07 28.27 28.07 28.57C28.07 28.57 28.07 28.57 28.07 28.57L28.07 42.39C28.07 43.29 28.81 44.03 29.72 44.03C29.72 44.03 29.72 44.03 29.72 44.03C30.02 44.03 30.31 43.95 30.56 43.8C30.56 43.8 30.56 43.8 30.56 43.8L42.09 36.89C42.09 36.89 42.09 36.89 42.09 36.89C42.87 36.42 43.11 35.41 42.64 34.63Z" fill="#000000" fill-opacity="0" fill-rule="nonzero"/>
	<path id="Path" d="M41.37 35.71L29.85 42.61C29.81 42.64 29.77 42.65 29.72 42.65C29.62 42.65 29.56 42.6 29.53 42.57C29.5 42.54 29.46 42.48 29.46 42.39L29.46 28.57L29.46 28.57C29.46 28.52 29.47 28.48 29.49 28.43C29.54 28.35 29.61 28.32 29.65 28.31C29.69 28.3 29.77 28.29 29.85 28.34L41.37 35.26C41.41 35.28 41.44 35.31 41.46 35.35C41.54 35.47 41.5 35.63 41.37 35.71Z" fill="#000000" fill-opacity="0" fill-rule="nonzero"/>
	<path id="Path" d="M42.64 34.63C42.51 34.4 42.32 34.21 42.09 34.08C42.09 34.07 42.09 34.07 42.09 34.07L30.56 27.16C30.56 27.16 30.56 27.15 30.56 27.15C29.78 26.69 28.77 26.95 28.3 27.73C28.15 27.98 28.07 28.27 28.07 28.57C28.07 28.57 28.07 28.57 28.07 28.57L28.07 42.39C28.07 43.29 28.81 44.03 29.72 44.03C29.72 44.03 29.72 44.03 29.72 44.03C30.02 44.03 30.31 43.95 30.56 43.8C30.56 43.8 30.56 43.8 30.56 43.8L42.09 36.89C42.09 36.89 42.09 36.89 42.09 36.89C42.87 36.42 43.11 35.41 42.64 34.63Z" fill="#000000" fill-opacity="0" fill-rule="nonzero"/>
	<path id="Path" d="M41.37 35.71L29.85 42.61C29.81 42.64 29.77 42.65 29.72 42.65C29.62 42.65 29.56 42.6 29.53 42.57C29.5 42.54 29.46 42.48 29.46 42.39L29.46 28.57L29.46 28.57C29.46 28.52 29.47 28.48 29.49 28.43C29.54 28.35 29.61 28.32 29.65 28.31C29.69 28.3 29.77 28.29 29.85 28.34L41.37 35.26C41.41 35.28 41.44 35.31 41.46 35.35C41.54 35.47 41.5 35.63 41.37 35.71Z" fill="#000000" fill-opacity="0" fill-rule="nonzero"/>
	<path id="+" d="M32.92 37.4L25.09 37.4L25.09 32.97L32.92 32.97L32.92 25.08L37.35 25.08L37.35 32.97L45.18 32.97L45.18 37.4L37.35 37.4L37.35 45.19L32.92 45.19L32.92 37.4Z" fill="#FFFFFF" fill-opacity="1.000000" fill-rule="nonzero"/>
</svg>
