<svg width="114.025879" height="123.896973" viewBox="0 0 114.026 123.897" fill="none" xmlns="http://www.w3.org/2000/svg" xmlns:xlink="http://www.w3.org/1999/xlink">
	<defs>
		<linearGradient x1="23.426380" y1="50.537247" x2="136.974686" y2="109.312347" id="paint_linear_1_2565_0" gradientUnits="userSpaceOnUse">
			<stop stop-color="#FD749B"/>
			<stop offset="1.000000" stop-color="#281AC8"/>
		</linearGradient>
		<linearGradient x1="58.771111" y1="50.222366" x2="83.476143" y2="-16.721245" id="paint_linear_1_2566_0" gradientUnits="userSpaceOnUse">
			<stop stop-color="#FD749B"/>
			<stop offset="1.000000" stop-color="#281AC8"/>
		</linearGradient>
		<linearGradient x1="11.912472" y1="51.427513" x2="44.355740" y2="72.359413" id="paint_linear_1_2567_0" gradientUnits="userSpaceOnUse">
			<stop stop-color="#FC58B3"/>
			<stop offset="1.000000" stop-color="#FEAE68"/>
		</linearGradient>
		<linearGradient x1="49.339531" y1="-5.150025" x2="36.656570" y2="154.331055" id="paint_linear_1_2569_0" gradientUnits="userSpaceOnUse">
			<stop stop-color="#FD749B"/>
			<stop offset="1.000000" stop-color="#281AC8"/>
		</linearGradient>
	</defs>
	<g transform= 'translateX(10px)'>
  <g opacity="0.253397" style="mix-blend-mode:normal">
		<path id="Path 4" d="M20.36 88.61C20.36 88.61 20.93 85.46 23.18 92.88C25.42 100.3 50.82 116.54 59.32 103.38C67.83 90.23 79.85 104.99 88.15 101.04C96.45 97.1 97.77 91.89 91.58 79.34C85.39 66.79 100.61 51.49 85.44 41.66C70.26 31.83 82.01 34.24 82.01 34.24L81.93 74.39L61.62 92.8L20.36 88.61Z" fill="url(#paint_linear_1_2565_0)" fill-opacity="1.000000" fill-rule="evenodd"/>
		<path id="Path 4" d="M23.18 92.88C25.42 100.3 50.82 116.54 59.32 103.38C67.83 90.23 79.85 104.99 88.15 101.04C96.45 97.1 97.77 91.89 91.58 79.34C85.39 66.79 100.61 51.49 85.44 41.66C70.26 31.83 82.01 34.24 82.01 34.24L81.93 74.39L61.62 92.8L20.36 88.61C20.36 88.61 20.93 85.46 23.18 92.88Z" stroke="#979797" stroke-opacity="0" stroke-width="0.000000"/>
	</g>
	<g opacity="0.518059" style="mix-blend-mode:normal">
		<path id="Path 2 Copy" d="M80.59 49.54C80.59 49.54 78.82 49.44 82.73 47.69C86.64 45.94 93.81 30.74 86.04 26.92C78.28 23.09 85.54 15.42 82.82 11.08C80.1 6.74 77.16 6.37 70.71 10.65C64.27 14.94 51.82 3.49 47.47 12.58C43.11 21.67 50.51 10.63 50.51 10.63L68.66 16.34L80.1 26.36L80.59 49.54Z" fill="url(#paint_linear_1_2566_0)" fill-opacity="1.000000" fill-rule="evenodd"/>
		<path id="Path 2 Copy" d="M82.73 47.69C86.64 45.94 93.81 30.74 86.04 26.92C78.28 23.09 85.54 15.42 82.82 11.08C80.1 6.74 77.16 6.37 70.71 10.65C64.27 14.94 51.82 3.49 47.47 12.58C43.11 21.67 50.51 10.63 50.51 10.63L68.66 16.34L80.1 26.36L80.59 49.54C80.59 49.54 78.82 49.44 82.73 47.69Z" stroke="#979797" stroke-opacity="0" stroke-width="0.000000"/>
	</g>
	<path id="75%" d="M32.37 65.1Q31.57 66.29 31.57 68.35Q31.57 70.44 32.37 71.63Q32.58 71.95 32.86 72.18Q33.64 72.82 34.94 72.82Q36.25 72.82 37.03 72.17Q37.31 71.94 37.52 71.63Q38.31 70.44 38.31 68.35Q38.31 66.29 37.52 65.1Q37.31 64.78 37.02 64.55Q36.25 63.91 34.94 63.91Q33.64 63.91 32.87 64.55Q32.58 64.78 32.37 65.1ZM40.19 65.1Q39.39 66.29 39.39 68.35Q39.39 70.44 40.19 71.63Q40.4 71.95 40.69 72.18Q41.46 72.82 42.77 72.82Q44.08 72.82 44.85 72.17Q45.13 71.94 45.34 71.63Q46.14 70.44 46.14 68.35Q46.14 66.29 45.34 65.1Q45.13 64.78 44.85 64.55Q44.07 63.91 42.77 63.91Q41.47 63.91 40.69 64.55Q40.41 64.78 40.19 65.1ZM48.02 65.1Q47.22 66.29 47.22 68.35Q47.22 70.44 48.02 71.63Q48.23 71.95 48.51 72.18Q49.29 72.82 50.59 72.82Q51.9 72.82 52.68 72.17Q52.96 71.94 53.17 71.63Q53.96 70.44 53.96 68.35Q53.96 66.29 53.17 65.1Q52.95 64.78 52.67 64.55Q51.9 63.91 50.59 63.91Q49.29 63.91 48.51 64.55Q48.23 64.78 48.02 65.1ZM55.84 65.1Q55.04 66.29 55.04 68.35Q55.04 70.44 55.84 71.63Q56.05 71.95 56.33 72.18Q57.11 72.82 58.41 72.82Q59.72 72.82 60.5 72.17Q60.78 71.94 60.99 71.63Q61.79 70.44 61.79 68.35Q61.79 66.29 60.99 65.1Q60.78 64.78 60.5 64.55Q59.72 63.91 58.41 63.91Q57.12 63.91 56.34 64.55Q56.05 64.78 55.84 65.1ZM26.84 64.09L26.84 66L28.03 66L28.03 72.85L30.17 72.85L30.17 64.09L26.84 64.09ZM36.04 66.49Q36.3 67.14 36.3 68.35Q36.3 69.17 36.2 69.7Q36.11 70.24 35.81 70.57Q35.78 70.61 35.73 70.65Q35.45 70.9 34.94 70.9Q34.45 70.9 34.16 70.65Q34.11 70.61 34.07 70.57Q33.78 70.24 33.68 69.7Q33.59 69.17 33.59 68.35Q33.59 67.14 33.85 66.49Q33.95 66.24 34.13 66.09Q34.43 65.83 34.94 65.83Q35.46 65.83 35.76 66.09Q35.94 66.24 36.04 66.49ZM43.86 66.49Q44.12 67.14 44.12 68.35Q44.12 69.17 44.03 69.7Q43.93 70.24 43.64 70.57Q43.6 70.61 43.56 70.65Q43.27 70.9 42.77 70.9Q42.27 70.9 41.98 70.65Q41.94 70.61 41.9 70.57Q41.6 70.24 41.51 69.7Q41.41 69.17 41.41 68.35Q41.41 67.14 41.67 66.49Q41.77 66.24 41.95 66.09Q42.25 65.83 42.77 65.83Q43.29 65.83 43.59 66.09Q43.76 66.24 43.86 66.49ZM51.68 66.49Q51.95 67.14 51.95 68.35Q51.95 69.17 51.85 69.7Q51.76 70.24 51.46 70.57Q51.42 70.61 51.38 70.65Q51.09 70.9 50.59 70.9Q50.1 70.9 49.81 70.65Q49.76 70.61 49.72 70.57Q49.43 70.24 49.33 69.7Q49.23 69.17 49.23 68.35Q49.23 67.14 49.5 66.49Q49.6 66.24 49.78 66.09Q50.07 65.83 50.59 65.83Q51.11 65.83 51.41 66.09Q51.59 66.24 51.68 66.49ZM59.51 66.49Q59.77 67.14 59.77 68.35Q59.77 69.17 59.67 69.7Q59.58 70.24 59.29 70.57Q59.25 70.61 59.2 70.65Q58.92 70.9 58.41 70.9Q57.92 70.9 57.63 70.65Q57.59 70.61 57.54 70.57Q57.25 70.24 57.16 69.7Q57.06 69.17 57.06 68.35Q57.06 67.14 57.32 66.49Q57.42 66.24 57.6 66.09Q57.9 65.83 58.41 65.83Q58.94 65.83 59.23 66.09Q59.41 66.24 59.51 66.49Z" fill="url(#paint_linear_1_2567_0)" fill-opacity="1.000000" fill-rule="evenodd"/>
	<circle id="Ellipse 7" cx="44.854004" cy="53.824707" r="39.854057" stroke="#FAA9C6" stroke-opacity="1.000000" stroke-width="10.000000"/>
	<path id="Ellipse 8" d="M41.47 4.08Q60.03 2.82 74.87 14.03Q89.72 25.21 93.59 43.41Q97.49 61.58 88.5 77.88Q79.55 94.16 62.08 100.59Q44.65 107.03 27.24 100.45Q9.86 93.91 1 77.54L9.79 72.77Q16.88 85.86 30.78 91.1Q44.69 96.36 58.63 91.2Q72.59 86.07 79.75 73.05Q86.93 60.03 83.81 45.5Q80.72 30.95 68.84 22.01Q56.98 13.05 42.15 14.06L41.47 4.08Z" fill="url(#paint_linear_1_2569_0)" fill-opacity="1.000000" fill-rule="evenodd"/>
   </g>
</svg>
