<svg width="16.000000" height="16.000000" viewBox="0 0 16 16" fill="none" xmlns="http://www.w3.org/2000/svg" xmlns:xlink="http://www.w3.org/1999/xlink">
	<desc>
			Created with Pixso.
	</desc>
	<defs>
		<clipPath id="clip1_2706">
			<rect id="bitcoin 2" width="16.000000" height="16.000000" fill="white" fill-opacity="0"/>
		</clipPath>
		<linearGradient x1="8.499989" y1="-2.518521" x2="7.086242" y2="25.925926" id="paint_linear_1_2707_0" gradientUnits="userSpaceOnUse">
			<stop stop-color="#FD749B"/>
			<stop offset="1.000000" stop-color="#281AC8"/>
		</linearGradient>
	</defs>
	<g clip-path="url(#clip1_2706)">
		<path id="bitcoin 1" d="M10.19 7.43C11.08 6.83 11.66 5.82 11.66 4.66C11.66 3.05 10.52 1.71 9 1.4L9 0.33C9 0.14 8.85 0 8.67 0C8.48 0 8.34 0.14 8.34 0.33L8.34 1.33C8.33 1.33 8.33 1.33 8.33 1.33L6.99 1.33L6.99 0.33C6.99 0.14 6.84 0 6.65 0C6.47 0 6.32 0.14 6.32 0.33L6.32 1.33L4.78 1.33L4.78 1.33L3.33 1.33C3.14 1.33 3 1.48 3 1.66C3 1.85 3.14 2 3.33 2L4.33 2L4.33 14L3.33 14C3.14 14 3 14.14 3 14.33C3 14.51 3.14 14.66 3.33 14.66L6.32 14.66L6.32 15.66C6.32 15.85 6.47 16 6.65 16C6.84 16 6.99 15.85 6.99 15.66L6.99 14.66L8.34 14.66L8.34 15.66C8.34 15.85 8.48 16 8.67 16C8.85 16 9 15.85 9 15.66L9 14.66L9.33 14.66C11.35 14.66 13 13.02 13 11C13 9.27 11.8 7.82 10.19 7.43ZM5 2L8.33 2C9.04 2 9.71 2.27 10.21 2.78C10.72 3.28 11 3.95 11 4.66C11 5.37 10.72 6.04 10.21 6.55C9.72 7.04 9.07 7.32 8.38 7.33L5 7.33L5 2ZM11.45 13.12C10.88 13.68 10.13 14 9.33 14L5 14L5 8L8.33 8C8.34 8 8.36 8 8.38 8L9.33 8C10.13 8 10.88 8.31 11.45 8.87C12.02 9.44 12.33 10.19 12.33 11C12.33 11.8 12.02 12.55 11.45 13.12Z" fill="url(#paint_linear_1_2707_0)" fill-opacity="1.000000" fill-rule="nonzero"/>
	</g>
</svg>
