<svg width="17.000000" height="11.857178" viewBox="0 0 17 11.8572" fill="none" xmlns="http://www.w3.org/2000/svg" xmlns:xlink="http://www.w3.org/1999/xlink">
	<desc>
			Created with Pixso.
	</desc>
	<defs>
		<linearGradient x1="9.299997" y1="-1.208997" x2="7.037951" y2="18.092590" id="paint_linear_1_2761_0" gradientUnits="userSpaceOnUse">
			<stop stop-color="#FD749B"/>
			<stop offset="1.000000" stop-color="#281AC8"/>
		</linearGradient>
		<linearGradient x1="9.300005" y1="3.199524" x2="7.037943" y2="4.977303" id="paint_linear_1_2762_0" gradientUnits="userSpaceOnUse">
			<stop stop-color="#FD749B"/>
			<stop offset="1.000000" stop-color="#281AC8"/>
		</linearGradient>
		<linearGradient x1="14.943052" y1="8.814284" x2="13.165275" y2="8.733500" id="paint_linear_1_2763_0" gradientUnits="userSpaceOnUse">
			<stop stop-color="#FD749B"/>
			<stop offset="1.000000" stop-color="#281AC8"/>
		</linearGradient>
		<linearGradient x1="13.228697" y1="8.814284" x2="11.450919" y2="8.733500" id="paint_linear_1_2764_0" gradientUnits="userSpaceOnUse">
			<stop stop-color="#FD749B"/>
			<stop offset="1.000000" stop-color="#281AC8"/>
		</linearGradient>
		<linearGradient x1="11.514830" y1="8.814284" x2="9.737052" y2="8.733500" id="paint_linear_1_2765_0" gradientUnits="userSpaceOnUse">
			<stop stop-color="#FD749B"/>
			<stop offset="1.000000" stop-color="#281AC8"/>
		</linearGradient>
	</defs>
	<path id="Rectangle-42" d="M15.35 0.5C15.98 0.5 16.5 1.01 16.5 1.64L16.5 10.21C16.5 10.84 15.98 11.35 15.35 11.35L1.64 11.35C1.01 11.35 0.5 10.84 0.5 10.21L0.5 1.64C0.5 1.01 1.01 0.5 1.64 0.5L15.35 0.5Z" stroke="url(#paint_linear_1_2761_0)" stroke-opacity="1.000000" stroke-width="1.000000" stroke-linejoin="round"/>
	<path id="Path-129_1_" d="M0.5 3.35L16.5 3.35" stroke="url(#paint_linear_1_2762_0)" stroke-opacity="1.000000" stroke-width="1.000000" stroke-linejoin="round" stroke-linecap="round"/>
	<path id="Path-130-Copy-2" d="M14.78 8.5L14.78 9.07" stroke="url(#paint_linear_1_2763_0)" stroke-opacity="1.000000" stroke-width="1.000000" stroke-linejoin="round" stroke-linecap="round"/>
	<path id="Path-130-Copy-3" d="M13.07 8.5L13.07 9.07" stroke="url(#paint_linear_1_2764_0)" stroke-opacity="1.000000" stroke-width="1.000000" stroke-linejoin="round" stroke-linecap="round"/>
	<path id="Path-130-Copy-4" d="M11.35 8.5L11.35 9.07" stroke="url(#paint_linear_1_2765_0)" stroke-opacity="1.000000" stroke-width="1.000000" stroke-linejoin="round" stroke-linecap="round"/>
</svg>
