<svg width="16.000000" height="15.797363" viewBox="0 0 16 15.7974" fill="none" xmlns="http://www.w3.org/2000/svg" xmlns:xlink="http://www.w3.org/1999/xlink">
	<desc>
			Created with Pixso.
	</desc>
	<defs>
		<linearGradient x1="3.823782" y1="-1.753662" x2="2.840860" y2="18.052393" id="paint_linear_1_2519_0" gradientUnits="userSpaceOnUse">
			<stop stop-color="#FD749B"/>
			<stop offset="1.000000" stop-color="#281AC8"/>
		</linearGradient>
		<linearGradient x1="8.189558" y1="11.675192" x2="6.509905" y2="18.007210" id="paint_linear_1_2520_0" gradientUnits="userSpaceOnUse">
			<stop stop-color="#FD749B"/>
			<stop offset="1.000000" stop-color="#281AC8"/>
		</linearGradient>
		<linearGradient x1="12.538785" y1="-0.936804" x2="11.451296" y2="17.722599" id="paint_linear_1_2521_0" gradientUnits="userSpaceOnUse">
			<stop stop-color="#FD749B"/>
			<stop offset="1.000000" stop-color="#281AC8"/>
		</linearGradient>
	</defs>
	<path id="Vector" d="M4.03 1.49C4.36 1.31 4.71 1.16 5.07 1.03L4.94 0.96C4.69 0.82 4.6 0.5 4.75 0.25C4.76 0.24 4.77 0.22 4.77 0.21C4.93 0 5.22 -0.07 5.45 0.06L6.38 0.6L6.69 0.78C6.74 0.81 6.79 0.85 6.83 0.9C6.88 0.96 6.91 1.02 6.93 1.09C6.95 1.16 6.95 1.23 6.94 1.3C6.93 1.35 6.92 1.4 6.9 1.45C6.89 1.46 6.89 1.47 6.88 1.48L6.16 2.72C6.07 2.88 5.9 2.98 5.72 2.98C5.7 2.98 5.69 2.98 5.68 2.98C5.6 2.97 5.53 2.95 5.46 2.91C5.21 2.76 5.13 2.45 5.27 2.2L5.37 2.02C4.96 2.17 4.57 2.36 4.2 2.58C2.61 3.54 1.46 5.16 1.13 7.06C0.93 8.19 1.03 9.36 1.42 10.44C1.52 10.71 1.38 11.01 1.12 11.1C1.06 11.13 1 11.14 0.94 11.14C0.73 11.14 0.53 11.01 0.45 10.8C0 9.55 -0.12 8.19 0.11 6.88C0.52 4.54 2.01 2.57 4.03 1.49Z" fill="url(#paint_linear_1_2519_0)" fill-opacity="1.000000" fill-rule="evenodd"/>
	<path id="Vector" d="M3.6 14.66C4.42 15.16 5.32 15.51 6.27 15.68C6.71 15.75 7.15 15.79 7.58 15.79C9.8 15.79 11.95 14.81 13.41 13.08C13.59 12.86 13.56 12.54 13.35 12.35C13.13 12.17 12.8 12.2 12.62 12.42C11.11 14.21 8.75 15.07 6.45 14.66C5.76 14.54 5.1 14.31 4.49 13.98C4.11 13.78 3.76 13.54 3.43 13.27L3.59 13.27C3.88 13.27 4.11 13.04 4.11 12.75C4.11 12.66 4.09 12.58 4.05 12.51C3.96 12.34 3.79 12.23 3.59 12.23L2.22 12.23C2.19 12.23 2.17 12.23 2.15 12.23C2.09 12.23 2.03 12.25 1.98 12.27C1.93 12.29 1.88 12.32 1.84 12.35C1.77 12.41 1.72 12.48 1.68 12.56C1.67 12.61 1.66 12.65 1.65 12.7L1.65 12.7L1.65 12.7C1.65 12.71 1.65 12.73 1.65 12.74L1.65 12.75L1.65 14.18C1.65 14.44 1.85 14.65 2.1 14.69C2.12 14.69 2.14 14.69 2.17 14.69L2.17 14.69C2.45 14.69 2.68 14.46 2.68 14.18L2.68 14C2.97 14.24 3.28 14.46 3.6 14.66Z" fill="url(#paint_linear_1_2520_0)" fill-opacity="1.000000" fill-rule="evenodd"/>
	<path id="Vector" d="M14.05 9.33C14.13 8.91 14.16 8.49 14.15 8.07C14.13 6.78 13.72 5.52 12.97 4.43C11.96 3 10.46 2.04 8.73 1.74C8.45 1.69 8.26 1.42 8.31 1.14C8.36 0.86 8.63 0.67 8.91 0.72C10.91 1.07 12.65 2.18 13.81 3.84C14.78 5.22 15.25 6.84 15.18 8.49C15.17 8.83 15.13 9.17 15.07 9.52C15.06 9.55 15.06 9.59 15.05 9.63L15.22 9.53C15.47 9.39 15.78 9.47 15.93 9.72C15.94 9.75 15.96 9.77 15.97 9.8C16.05 10.03 15.96 10.3 15.74 10.42L14.78 10.98L14.5 11.14C14.45 11.17 14.39 11.19 14.32 11.2C14.3 11.2 14.27 11.21 14.24 11.21C14.2 11.21 14.15 11.2 14.11 11.19C14.04 11.17 13.97 11.14 13.92 11.09C13.87 11.05 13.83 11 13.8 10.95L13.78 10.92L13.08 9.71C12.98 9.53 13 9.32 13.1 9.16C13.15 9.1 13.2 9.05 13.27 9.01C13.52 8.86 13.84 8.95 13.98 9.2L14.05 9.33Z" fill="url(#paint_linear_1_2521_0)" fill-opacity="1.000000" fill-rule="evenodd"/>
</svg>
