<svg width="244.000000" height="168.000000" viewBox="0 0 244 168" fill="none" xmlns="http://www.w3.org/2000/svg" xmlns:xlink="http://www.w3.org/1999/xlink">
	<desc>
			Created with Pixso.
	</desc>
	<defs>
		<linearGradient x1="134.200104" y1="-26.444454" x2="99.703613" y2="272.222198" id="paint_linear_1_8101_0" gradientUnits="userSpaceOnUse">
			<stop stop-color="#FD749B"/>
			<stop offset="1.000000" stop-color="#281AC8"/>
		</linearGradient>
		<linearGradient x1="114.908531" y1="69.158493" x2="110.819206" y2="93.155182" id="paint_linear_1_8103_0" gradientUnits="userSpaceOnUse">
			<stop stop-color="#FD749B"/>
			<stop offset="1.000000" stop-color="#281AC8"/>
		</linearGradient>
		<linearGradient x1="124.453667" y1="44.715290" x2="117.910683" y2="126.989639" id="paint_linear_1_8104_0" gradientUnits="userSpaceOnUse">
			<stop stop-color="#FD749B"/>
			<stop offset="1.000000" stop-color="#281AC8"/>
		</linearGradient>
		<linearGradient x1="137.555267" y1="75.823395" x2="135.128937" y2="89.878601" id="paint_linear_1_8105_0" gradientUnits="userSpaceOnUse">
			<stop stop-color="#FD749B"/>
			<stop offset="1.000000" stop-color="#281AC8"/>
		</linearGradient>
		<linearGradient x1="129.370712" y1="62.052174" x2="128.007614" y2="79.192673" id="paint_linear_1_8106_0" gradientUnits="userSpaceOnUse">
			<stop stop-color="#FD749B"/>
			<stop offset="1.000000" stop-color="#281AC8"/>
		</linearGradient>
	</defs>
	<rect id="Rectangle 21" rx="10.000000" width="244.000000" height="168.000000" fill="#FFFFFF" fill-opacity="1.000000"/>
	<rect id="Rectangle 21" x="0.500000" y="0.500000" rx="10.000000" width="243.000000" height="167.000000" stroke="url(#paint_linear_1_8101_0)" stroke-opacity="1.000000" stroke-width="1.000000"/>
	<path id="Path-124_10_" d="M99 84.78L114.42 71.28L127.92 84.78" stroke="url(#paint_linear_1_8103_0)" stroke-opacity="1.000000" stroke-width="1.000000" stroke-linejoin="round" stroke-linecap="round"/>
	<path id="Rectangle-24_7_" d="M137.56 52C141.8 52 145.27 55.47 145.27 59.71L145.27 90.56C145.27 94.8 141.8 98.27 137.56 98.27L106.71 98.27C102.47 98.27 99 94.8 99 90.56L99 59.71C99 55.47 102.47 52 106.71 52L137.56 52Z" stroke="url(#paint_linear_1_8104_0)" stroke-opacity="1.000000" stroke-width="1.000000" stroke-linejoin="round"/>
	<path id="Path-125_10_" d="M145.27 84.78L137.56 77.06L128.11 84.97" stroke="url(#paint_linear_1_8105_0)" stroke-opacity="1.000000" stroke-width="1.000000" stroke-linejoin="round" stroke-linecap="round"/>
	<path id="Oval-24_10_" d="M128.88 73.21C126.22 73.21 124.06 71.05 124.06 68.39C124.06 65.72 126.22 63.56 128.88 63.56C131.55 63.56 133.7 65.72 133.7 68.39C133.7 71.05 131.55 73.21 128.88 73.21Z" stroke="url(#paint_linear_1_8106_0)" stroke-opacity="1.000000" stroke-width="1.000000" stroke-linejoin="round"/>
</svg>
